<svg width="166" height="32" viewBox="0 0 166 32" fill="none" xmlns="http://www.w3.org/2000/svg">
<g clip-path="url(#clip0_97_46)">
<rect width="166" height="32" rx="6" fill="#2A1A51"/>
<mask id="path-3-inside-1_97_46" fill="white">
<path d="M0 0H32V32H0V0Z"/>
</mask>
<path d="M32 0H31V32H32H33V0H32Z" fill="#622DE3" mask="url(#path-3-inside-1_97_46)"/>
<g clip-path="url(#clip1_97_46)">
<path d="M12.7589 12.6348H10.0219V21.1598H12.7589V12.6348ZM12.7589 24.0004H23.7102V21.1598H12.7589V24.0004ZM12.7589 12.6348H23.7102V9.79419H12.7589V12.6348Z" fill="#8C52FF" fill-opacity="0.302"/>
<path d="M11.8931 11.7393H9.15601V20.2612H11.8931V11.7393ZM11.8931 23.1018H22.8443V20.2612H11.8931V23.1018ZM11.8931 11.7393H22.8443V8.89868H11.8931V11.7393Z" fill="#8C52FF" fill-opacity="0.502"/>
<path d="M11.03 10.8406H8.29291V19.3656H11.03V10.8406ZM11.03 22.2063H21.9812V19.3656H11.03V22.2063ZM11.03 10.8406H21.9812V8H11.03V10.8406Z" fill="#8C52FF"/>
</g>
<path d="M44.6574 21V10.794H48.7594C51.6574 10.794 53.3514 12.796 53.3514 15.904C53.3514 19.012 51.6574 21 48.7594 21H44.6574ZM48.5214 19.586C50.4954 19.586 51.6854 18.312 51.6854 15.876C51.6854 13.426 50.4674 12.194 48.5214 12.194H46.2674V19.586H48.5214ZM58.1381 21.126C55.8981 21.126 54.5821 19.628 54.5821 17.332C54.5821 14.966 55.9401 13.454 58.0821 13.454C60.4761 13.454 61.6801 15.148 61.5121 17.598H56.1501C56.1361 19.11 56.9061 19.936 58.1381 19.936C59.0901 19.936 59.7061 19.488 59.9301 18.76H61.4421C61.1761 20.23 59.8881 21.126 58.1381 21.126ZM56.1221 16.59H59.9721C59.9161 15.302 59.1741 14.644 58.0681 14.644C56.9761 14.644 56.2201 15.372 56.1221 16.59ZM62.8488 23.394V13.58H64.3048L64.3608 15.036H64.4448C64.7808 14.098 65.6628 13.454 66.8108 13.454C68.6028 13.454 69.7648 14.882 69.7648 17.29C69.7648 19.712 68.6028 21.126 66.8108 21.126C65.6628 21.126 64.7808 20.51 64.4448 19.586H64.3888V23.394H62.8488ZM66.2508 19.852C67.4688 19.852 68.1828 18.9 68.1828 17.29C68.1828 15.694 67.4828 14.742 66.2928 14.742C65.0888 14.742 64.3888 15.722 64.3888 16.94V17.654C64.3888 18.872 65.0748 19.852 66.2508 19.852ZM71.269 21V10.556H72.809V21H71.269ZM77.8643 21.126C75.7223 21.126 74.2803 19.656 74.2803 17.304C74.2803 15.008 75.6383 13.454 77.8643 13.454C79.9923 13.454 81.4203 14.924 81.4203 17.29C81.4203 19.572 80.0763 21.126 77.8643 21.126ZM77.8503 19.838C79.0683 19.838 79.8523 18.942 79.8523 17.29C79.8523 15.638 79.0823 14.728 77.8643 14.728C76.6323 14.728 75.8483 15.638 75.8483 17.304C75.8483 18.942 76.6323 19.838 77.8503 19.838ZM82.4854 23.45V22.176H83.2974C83.9414 22.176 84.2774 21.938 84.5014 21.336L84.8234 20.468L81.9674 13.58H83.6614L85.5514 18.816H85.6214L86.1254 17.262L87.3854 13.58H89.0234L85.9854 21.714C85.5234 22.988 84.7954 23.45 83.5634 23.45H82.4854ZM95.6675 21C94.5335 21 93.9875 20.482 93.9875 19.278V14.84H92.6155V13.58H93.9875V11.48L95.5135 11.284V13.58H97.0955V14.84H95.5135V18.998C95.5135 19.516 95.7515 19.712 96.2135 19.712H97.1095V21H95.6675ZM101.51 21.126C99.3681 21.126 97.9261 19.656 97.9261 17.304C97.9261 15.008 99.2841 13.454 101.51 13.454C103.638 13.454 105.066 14.924 105.066 17.29C105.066 19.572 103.722 21.126 101.51 21.126ZM101.496 19.838C102.714 19.838 103.498 18.942 103.498 17.29C103.498 15.638 102.728 14.728 101.51 14.728C100.278 14.728 99.4941 15.638 99.4941 17.304C99.4941 18.942 100.278 19.838 101.496 19.838ZM114.351 21.126C111.439 21.126 109.521 19.152 109.521 15.904C109.521 12.642 111.439 10.682 114.351 10.682C116.815 10.682 118.523 12.026 118.859 14.21H117.179C116.899 12.922 115.849 12.082 114.351 12.082C112.419 12.082 111.201 13.468 111.201 15.904C111.201 18.34 112.419 19.712 114.351 19.712C115.821 19.712 116.927 18.886 117.179 17.57H118.859C118.551 19.768 116.815 21.126 114.351 21.126ZM123.449 21.126C121.307 21.126 119.865 19.656 119.865 17.304C119.865 15.008 121.223 13.454 123.449 13.454C125.577 13.454 127.005 14.924 127.005 17.29C127.005 19.572 125.661 21.126 123.449 21.126ZM123.435 19.838C124.653 19.838 125.437 18.942 125.437 17.29C125.437 15.638 124.667 14.728 123.449 14.728C122.217 14.728 121.433 15.638 121.433 17.304C121.433 18.942 122.217 19.838 123.435 19.838ZM131.841 21.126C129.699 21.126 128.257 19.656 128.257 17.304C128.257 15.008 129.615 13.454 131.841 13.454C133.969 13.454 135.397 14.924 135.397 17.29C135.397 19.572 134.053 21.126 131.841 21.126ZM131.827 19.838C133.045 19.838 133.829 18.942 133.829 17.29C133.829 15.638 133.059 14.728 131.841 14.728C130.609 14.728 129.825 15.638 129.825 17.304C129.825 18.942 130.609 19.838 131.827 19.838ZM136.878 21V10.556H138.418V21H136.878ZM140.239 21V13.58H141.779V21H140.239ZM141.009 12.418C140.463 12.418 140.057 12.026 140.057 11.494C140.057 10.962 140.463 10.57 141.009 10.57C141.569 10.57 141.975 10.962 141.975 11.494C141.975 12.026 141.569 12.418 141.009 12.418ZM144.105 21V14.84H142.887V13.58H144.105V12.39C144.105 11.186 144.833 10.556 146.093 10.556H147.283V11.69H146.429C145.897 11.69 145.645 11.914 145.645 12.488V13.58H148.319L150.209 18.816H150.279L150.783 17.262L152.043 13.58H153.681L150.643 21.714C150.181 22.988 149.453 23.45 148.221 23.45H147.143V22.176H147.955C148.599 22.176 148.935 21.938 149.159 21.336L149.481 20.468L147.143 14.84H145.645V21H144.105Z" fill="#EDEDED"/>
</g>
<rect x="0.5" y="0.5" width="165" height="31" rx="5.5" stroke="#622DE3"/>
<defs>
<clipPath id="clip0_97_46">
<rect width="166" height="32" rx="6" fill="white"/>
</clipPath>
<clipPath id="clip1_97_46">
<rect width="15.4167" height="16" fill="white" transform="translate(8.29163 8)"/>
</clipPath>
</defs>
</svg>
