<svg width="175" height="32" viewBox="0 0 175 32" fill="none" xmlns="http://www.w3.org/2000/svg">
<g clip-path="url(#clip0_97_38)">
<rect width="175" height="32" rx="6" fill="#1A1A1A"/>
<mask id="path-3-inside-1_97_38" fill="white">
<path d="M0 0H32V32H0V0Z"/>
</mask>
<path d="M32 0H31V32H32H33V0H32Z" fill="#3A3A3A" mask="url(#path-3-inside-1_97_38)"/>
<g clip-path="url(#clip1_97_38)">
<path d="M19.6801 8.73814V9.22923C19.6842 9.32336 19.7006 9.39293 19.721 9.47477C19.8226 9.8297 19.9892 10.1627 20.2121 10.457C20.294 10.5511 20.4454 10.6206 20.4986 10.7434C20.6623 10.8826 20.8915 11.0217 21.0715 11.1117C21.1411 11.1363 21.3048 11.1568 21.358 11.1936C21.4358 11.2468 21.4767 11.2877 21.358 11.3573V11.3982C21.3335 11.4719 21.2802 11.5414 21.2352 11.6028C21.1534 11.712 21.0579 11.8074 20.9488 11.8893C20.7728 12.0203 20.56 12.1676 20.3349 12.1758H20.294C20.2394 12.2194 20.1712 12.2467 20.0894 12.2576H19.9257C19.7129 12.2863 19.3977 12.3476 19.189 12.2576H18.9435C18.878 12.2576 18.8207 12.2249 18.7798 12.2167H18.657C18.5708 12.205 18.4875 12.1772 18.4115 12.1348H18.3705C18.2682 12.1307 18.2069 12.0857 18.125 12.053L17.9613 12.0121C17.6175 11.9302 17.1305 11.742 16.8564 11.521H16.8154C16.6272 11.4801 16.4267 11.345 16.2548 11.2632C16.0829 11.1813 15.8251 11.1404 15.7105 10.989H15.6696C15.5059 10.948 15.3053 10.8457 15.1785 10.7434H15.1375C14.8593 10.6779 14.581 10.4979 14.3191 10.3751C14.0531 10.2605 13.7216 10.1418 13.5006 9.96586H13.4597C13.1732 9.91675 12.8294 9.80217 12.5593 9.72032H8.58969C8.37279 9.89629 8.02903 9.89629 7.82441 10.1418C7.61979 10.3874 7.43563 10.5797 7.32104 10.8662C7.30468 10.9276 7.28831 10.9603 7.28012 11.0299C7.27194 11.0954 7.24738 11.1936 7.2392 11.2345V13.3216C7.24738 13.3707 7.27194 13.4526 7.28012 13.5263C7.28831 13.6081 7.30058 13.6572 7.32104 13.7309C7.38882 13.9012 7.47096 14.0655 7.56659 14.222C7.59933 14.2506 7.62388 14.312 7.64844 14.3447C7.7221 14.4266 7.84897 14.4839 7.89398 14.5903C8.28276 14.93 8.8557 15.0118 9.24448 15.3269H9.2854C9.49411 15.376 9.77649 15.5234 9.94019 15.6543H9.98111C10.1448 15.6952 10.3453 15.7975 10.4722 15.8999H10.5131C10.6386 15.9326 10.7478 15.9872 10.8405 16.0636H10.8814C10.9633 16.0676 10.9878 16.1168 11.0451 16.1454C11.1106 16.1781 11.1556 16.174 11.2088 16.2272H11.2498C11.318 16.2354 11.3725 16.2627 11.4135 16.3091H11.4544C11.5771 16.3377 11.7286 16.3909 11.8227 16.4728H11.8636C12.056 16.5055 12.412 16.5997 12.5593 16.7183H12.6003C12.7026 16.7224 12.7639 16.7715 12.8458 16.8002C12.9195 16.8166 12.9686 16.8329 13.0504 16.8411C13.1323 16.852 13.2005 16.8657 13.255 16.882C13.3205 16.8739 13.3369 16.882 13.3778 16.923H13.4187C13.4869 16.9093 13.5415 16.923 13.5824 16.9639H13.6234C13.6916 16.9502 13.7461 16.9639 13.7871 17.0048H13.828C13.918 16.9966 14.0121 16.9925 14.0735 17.0457H14.1144C14.2236 17.0348 14.3191 17.0485 14.4009 17.0867H16.2425C16.2916 17.0785 16.3694 17.0457 16.4471 17.0457H16.6927C16.754 17.0212 16.8113 16.9925 16.8973 17.0048H16.9382C16.9791 16.9666 17.0337 16.953 17.1019 16.9639H17.1428C17.1837 16.9257 17.2383 16.912 17.3065 16.923H17.3474C17.4457 16.8698 17.5521 16.8575 17.6748 16.8411L17.8795 16.8002C17.9613 16.7715 18.0268 16.7347 18.125 16.7183C18.2887 16.6897 18.4197 16.6488 18.5752 16.5956C18.6693 16.5546 18.747 16.4933 18.8616 16.4728H18.9026C18.9435 16.4264 18.9981 16.3991 19.0663 16.3909H19.1072C19.1849 16.3296 19.2668 16.3091 19.3527 16.2682C19.4318 16.2245 19.5137 16.1836 19.5983 16.1454C19.7525 16.0868 19.9029 16.0185 20.0484 15.9408C20.2285 15.8262 20.4127 15.6952 20.6214 15.6134C20.6214 15.6134 20.6459 15.6216 20.6623 15.6134C20.736 15.4988 20.9488 15.417 21.0715 15.3678C21.0715 15.3678 21.0961 15.376 21.1125 15.3678C21.1738 15.2696 21.3294 15.2041 21.4399 15.1632C21.4399 15.1632 21.4644 15.1714 21.4808 15.1632C21.5422 15.065 21.6977 14.9995 21.8082 14.9586C21.8082 14.9586 21.8327 14.9668 21.8491 14.9586C21.9023 14.8768 22.0046 14.8317 22.0946 14.7949C22.0946 14.7949 22.1192 14.8031 22.1356 14.7949C22.2174 14.6721 22.4507 14.5657 22.5857 14.5084L22.7903 14.4266C23.0482 14.2711 23.2733 14.0337 23.527 13.8537V13.8127C23.527 13.735 23.5106 13.6408 23.527 13.5672C23.4861 13.383 23.3674 13.3421 23.2405 13.2398H23.1996C23.1505 13.2398 23.085 13.2316 23.0359 13.2398C22.6717 13.3094 22.3606 13.7022 22.0046 13.8455C21.6445 13.9846 21.313 14.2834 20.9488 14.4266H20.9078C20.4618 14.8604 19.7129 15.0814 19.1604 15.3801C18.6079 15.6789 17.7853 16.0472 17.1428 16.0636H17.1019C17.061 16.1017 17.0064 16.1154 16.9382 16.1045H16.8973C16.8564 16.1427 16.8018 16.1563 16.7336 16.1454H16.6927C16.6313 16.1986 16.5331 16.1945 16.4471 16.1863H16.4062C16.3366 16.2395 16.2179 16.2354 16.1197 16.2272C16.0788 16.2354 16.0215 16.2682 15.956 16.2682H15.7514C15.4813 16.2682 15.203 16.2845 14.9329 16.2682C14.8552 16.2641 14.8224 16.2805 14.7692 16.2272H14.4418C14.3272 16.2191 14.2086 16.174 14.1144 16.1454H14.0326C13.8771 16.1563 13.7407 16.129 13.6234 16.0636H13.5824C13.4597 16.0636 13.3505 16.0363 13.255 15.9817H13.2141C13.1256 15.9817 13.0394 15.953 12.9686 15.8999H12.9276C12.6862 15.8917 12.4366 15.7443 12.2319 15.6543L12.0682 15.6134C11.9987 15.5929 11.9537 15.5847 11.9045 15.5315H11.8636C11.7954 15.5261 11.7408 15.4988 11.6999 15.4497H11.659C11.5662 15.4251 11.4844 15.3842 11.4135 15.3269H11.3725C11.2293 15.2942 11.0738 15.2082 10.9633 15.1223H10.9224C10.8528 15.1223 10.8323 15.0937 10.7996 15.0405H10.7587C10.2839 14.93 9.80923 14.5698 9.35906 14.3939C8.9089 14.222 8.29913 14.0173 8.13953 13.5263H8.30322C8.96619 13.5263 9.64553 13.4853 10.3085 13.5263C10.3781 13.5304 10.4313 13.559 10.4722 13.5672C10.5581 13.5836 10.6113 13.5467 10.6768 13.6081H10.7177C10.8651 13.6122 11.0615 13.6818 11.1679 13.7718H11.2088C11.4755 13.8252 11.7271 13.937 11.9455 14.0992H11.9864C12.1119 14.1319 12.221 14.1865 12.3138 14.2629H12.3547C12.5266 14.3038 12.6944 14.402 12.8458 14.4675C12.9386 14.5003 13.034 14.5275 13.1323 14.5494C13.3655 14.6026 13.6643 14.6435 13.8689 14.754H13.9098C14.0612 14.7458 14.1963 14.799 14.3191 14.8358H14.6874C14.7529 14.8358 14.8102 14.8686 14.8511 14.8768H16.1606C16.2507 14.8113 16.4062 14.8358 16.529 14.8358H16.5699C16.8578 14.728 17.1627 14.6726 17.4702 14.6721C17.5732 14.6245 17.6843 14.5967 17.7976 14.5903C17.8672 14.533 17.949 14.5248 18.0432 14.5084C18.2097 14.4801 18.3739 14.439 18.5342 14.3857C18.6284 14.3447 18.7061 14.2834 18.8207 14.2629H18.8616C18.9026 14.2165 18.9571 14.1892 19.0253 14.181H19.0663C19.144 14.1197 19.2136 14.091 19.3118 14.0583L19.4346 14.0173C19.6024 13.9232 19.7783 13.8045 19.9666 13.7309C19.9666 13.7309 19.9911 13.7391 20.0075 13.7309C20.0689 13.6327 20.2653 13.5263 20.3758 13.4853C20.3758 13.4853 20.4004 13.4935 20.4168 13.4853C20.6336 13.1539 21.137 12.9738 21.4317 12.6587C21.7222 12.3395 21.9309 11.8893 22.2174 11.6028V11.5619C22.2288 11.4884 22.2568 11.4184 22.2993 11.3573C22.3852 11.2672 22.6635 11.3164 22.7903 11.3164C22.8449 11.3218 22.8995 11.3218 22.954 11.3164C22.995 11.3082 23.0482 11.2672 23.1177 11.2754H23.1587C23.216 11.2345 23.2842 11.2072 23.3633 11.1936H23.4042C23.4615 11.1417 23.5297 11.1008 23.6088 11.0708C23.6088 11.0708 23.6334 11.079 23.6498 11.0708C24.0181 10.6902 24.3864 10.4406 24.591 9.92494C24.636 9.81035 24.7342 9.66303 24.7547 9.55662C24.7629 9.5157 24.7629 9.43385 24.7547 9.39293C24.6933 9.14738 24.2513 9.29471 24.1122 9.48705C23.9731 9.6794 23.5556 9.72032 23.3224 9.72032H23.0359C22.7167 9.89629 22.2461 9.95359 22.0946 10.3751C22.0294 10.1536 21.9144 9.9499 21.7583 9.77967C21.6023 9.60943 21.4093 9.47714 21.1943 9.39293C21.1329 9.37246 21.092 9.36428 21.0306 9.352C20.9447 9.33154 20.8833 9.34382 20.826 9.27015H20.7851C20.5892 9.2193 20.4162 9.10397 20.294 8.94276C20.2121 8.82408 20.1548 8.67675 20.0484 8.57444H20.0075C19.8479 8.54989 19.7579 8.61537 19.6801 8.73814ZM12.2729 10.5797H12.3138C12.4038 10.5715 12.4979 10.5674 12.5593 10.6206H12.6003C12.6685 10.607 12.723 10.6206 12.7639 10.6616H12.8049C13.0592 10.6892 13.3005 10.7886 13.5006 10.948H13.5415C13.7216 10.989 13.8771 11.1158 14.0326 11.1936C14.1185 11.2345 14.2004 11.255 14.2781 11.3164H14.3191C14.4828 11.3573 14.6833 11.4596 14.8102 11.5619H14.8511C15.0148 11.6028 15.2153 11.7051 15.3422 11.8074H15.3831C15.5468 11.8484 15.7473 11.9507 15.8742 12.053H15.9151C16.2252 12.133 16.5169 12.272 16.7745 12.4622H16.8154C16.9587 12.495 17.1142 12.5809 17.2247 12.6669H17.2656C17.5152 12.7241 17.769 12.8715 18.0022 12.9533C18.0759 12.9697 18.125 12.9861 18.2069 12.9942C18.2805 13.0024 18.3583 13.027 18.4115 13.0352C18.4797 13.0215 18.5342 13.0352 18.5752 13.0761H18.8207C18.923 13.0761 18.9844 13.0884 19.0663 13.117H19.189C19.1699 13.1743 19.129 13.2016 19.0663 13.1989C18.8683 13.3353 18.646 13.4325 18.4115 13.4853L18.0022 13.6081C17.9204 13.6408 17.8631 13.6859 17.7567 13.69H17.7158C17.6094 13.7759 17.4088 13.8127 17.2656 13.8127H17.2247C17.0978 13.915 16.7868 13.956 16.6108 13.9355H16.5699C16.5085 13.9887 16.4103 13.9846 16.3243 13.9764C16.2834 13.9846 16.2261 14.0173 16.1606 14.0173H15.7105C15.555 14.0337 15.3708 14.0337 15.2194 14.0173H14.8511C14.757 14.0173 14.6751 13.9887 14.6055 13.9764H14.4828C14.4091 13.9764 14.3641 13.9478 14.3191 13.9355C14.1758 13.9028 14.0326 13.9069 13.9098 13.8537H13.8689C13.7011 13.825 13.4678 13.7964 13.3369 13.69H13.296C13.1868 13.6736 13.0913 13.6327 13.0095 13.5672H12.9686C12.9004 13.5617 12.8458 13.5344 12.8049 13.4853H12.7639C12.6712 13.4608 12.5893 13.4199 12.5184 13.3626H12.4775C12.1828 13.293 11.9332 13.1211 11.6508 13.0024C11.3643 12.8878 10.9878 12.8265 10.7177 12.7078H10.2676C9.69464 12.7078 9.08487 12.7201 8.54877 12.6669C8.45464 12.6669 8.35233 12.6791 8.2623 12.6669C8.21092 12.6588 8.16342 12.6347 8.12664 12.5979C8.08987 12.5611 8.06572 12.5136 8.05768 12.4622C7.98402 12.2658 8.04131 12.0366 8.05768 11.8484C8.05768 11.6724 8.04131 11.4923 8.05768 11.3164C8.06586 11.1854 8.14771 11.0176 8.22137 10.9071C8.27594 10.8253 8.34415 10.7571 8.426 10.7025C8.51194 10.6206 8.64699 10.6084 8.75339 10.5797C9.3918 10.4201 10.2389 10.5388 10.9224 10.5388C11.1352 10.5388 11.4135 10.5183 11.6181 10.5388C11.8227 10.5593 12.1173 10.4651 12.2729 10.5797Z" fill="#EDEDED" stroke="#EDEDED" stroke-width="0.0409241"/>
<path d="M10.3494 11.8487V11.8896C10.4231 12.0083 10.5336 12.1065 10.6768 12.1351C10.6891 12.1269 10.8282 12.1269 10.8405 12.1351C11.127 12.0778 11.217 11.775 11.127 11.5213V11.4803C11.0496 11.3989 10.95 11.3419 10.8405 11.3167C10.8282 11.3248 10.6891 11.3248 10.6768 11.3167C10.4108 11.3699 10.3249 11.5949 10.3494 11.8487Z" fill="#EDEDED" stroke="#EDEDED" stroke-width="0.0409241"/>
<path d="M22.7494 15.0816H22.7085C21.9637 15.6791 21.0224 16.0883 20.2531 16.6776C19.4755 17.2588 18.5056 17.8767 17.5521 18.0691L17.3884 18.11C17.2902 18.1509 17.2247 18.1918 17.1019 18.1918H17.061C16.9655 18.2464 16.8564 18.2737 16.7336 18.2737H16.6927C16.6395 18.3228 16.5699 18.3187 16.488 18.3146H16.4062C16.3353 18.3446 16.2534 18.3583 16.1606 18.3555H16.0788C15.956 18.4046 15.8128 18.3965 15.6696 18.3965C15.4117 18.421 15.1048 18.421 14.8511 18.3965C14.7119 18.3965 14.5073 18.4333 14.4009 18.3555H14.36C14.27 18.3637 14.1758 18.3678 14.1144 18.3146H14.0735C13.9917 18.3228 13.9221 18.3228 13.8689 18.2737H13.828C13.517 18.2941 13.1527 18.1345 12.8867 18.0281L12.723 17.9872C12.1989 17.849 11.6993 17.6309 11.2416 17.3406C10.816 17.0705 10.2921 16.8168 9.91154 16.5017C9.53504 16.1866 8.93755 15.9778 8.67154 15.5727H8.63062C8.53649 15.5154 8.44646 15.4622 8.38507 15.3681H8.34415C8.18045 15.2658 7.99629 15.1553 7.85306 15.0407H7.48474C7.42179 15.0619 7.36573 15.0997 7.3225 15.1501C7.27928 15.2005 7.25049 15.2617 7.2392 15.3271C7.25147 15.4622 7.2392 15.6013 7.2392 15.7364V16.1047C7.24738 16.1702 7.28012 16.2602 7.28012 16.3503V16.473C7.28831 16.5139 7.32923 16.5631 7.32104 16.6367V16.6776C7.37015 16.7268 7.35378 16.7677 7.36197 16.8413C7.39471 17.1155 7.48474 17.357 7.56659 17.6189C7.63616 17.7949 7.73847 17.9913 7.77121 18.1918V18.2328C7.82032 18.2737 7.8476 18.3282 7.85306 18.3965V18.4374C7.94216 18.5623 8.0112 18.7004 8.05768 18.8466C8.08633 18.9285 8.0986 18.9694 8.13953 19.0512C8.46692 19.571 8.78203 20.0948 9.19537 20.5777C9.60461 21.0565 10.0466 21.4207 10.5213 21.8218C11.0001 22.227 11.6795 22.3947 12.1501 22.7753H12.191C12.2592 22.7835 12.3138 22.8108 12.3547 22.8572H12.3956C12.5102 22.8736 12.5921 22.939 12.6821 22.98L12.9686 23.0618C13.2018 23.115 13.5006 23.1559 13.7052 23.2664H13.7461C13.8321 23.2541 13.8935 23.2992 13.9507 23.3073H14.0735C14.1881 23.3155 14.3109 23.3483 14.4009 23.3892H14.7283C14.8142 23.3892 14.9166 23.4219 14.9738 23.4301H15.8333C15.8824 23.4219 15.9642 23.3892 16.0379 23.3892H16.4062C16.5412 23.3483 16.6927 23.291 16.8564 23.3073H16.8973C17.0078 23.2173 17.2001 23.2091 17.3474 23.1846C17.4585 23.1655 17.5679 23.1382 17.6748 23.1027C17.9408 22.9963 18.2437 22.8449 18.5342 22.7753H18.5752C18.923 22.497 19.4182 22.3784 19.7702 22.0878C20.1262 21.8013 20.5191 21.564 20.8669 21.2611C21.047 21.1056 21.2352 20.8928 21.3989 20.7291C22.0046 20.1235 22.2461 19.3132 22.7494 18.6829V18.642C22.774 18.5492 22.8149 18.4674 22.8722 18.3965V18.3555C22.8804 18.2873 22.9077 18.2328 22.954 18.1918V18.1509C22.9745 18.0159 23.0359 17.799 23.1177 17.7007V17.6598C23.1177 17.5643 23.145 17.4825 23.1996 17.4143V17.3734C23.2446 17.0992 23.2978 16.7595 23.4042 16.5139V16.473C23.396 16.3912 23.396 16.3216 23.4451 16.2684V15.941C23.4451 15.7241 23.4247 15.499 23.4451 15.2862C23.4129 15.1915 23.3565 15.1068 23.2814 15.0407C23.2405 15.0202 23.2364 15.0243 23.1996 14.9998H22.954C22.8968 15.0407 22.8285 15.068 22.7494 15.0816ZM22.5039 16.6367C22.4179 17.1851 21.6363 17.4675 21.2352 17.8644C20.826 18.2532 20.2653 18.642 19.8029 18.9694C19.3323 19.2968 18.7757 19.7756 18.2069 19.9106H18.1659C18.0452 19.9983 17.9046 20.0545 17.7567 20.0743H17.7158C17.5688 20.1701 17.3997 20.2265 17.2247 20.238H17.1837C17.0883 20.2926 16.9791 20.3199 16.8564 20.3199H16.8154C16.7704 20.3649 16.7213 20.3608 16.6517 20.3608H16.5699C16.5208 20.3772 16.4799 20.4017 16.4062 20.4017H16.3243C16.2507 20.4304 16.177 20.4549 16.0788 20.4427H16.0379C15.9888 20.4918 15.9438 20.4836 15.8742 20.4836H15.6696C15.4363 20.5081 15.1662 20.5163 14.9329 20.4836H14.7692C14.6915 20.4836 14.6587 20.459 14.6055 20.4427H14.36C14.2822 20.4427 14.2495 20.4549 14.1963 20.4017H14.1554C14.0872 20.4154 14.0326 20.4017 13.9917 20.3608H13.9507C13.6193 20.3813 13.2632 20.2135 12.9604 20.1235C12.6575 20.0334 12.3138 19.9434 12.0682 19.747H12.0273C11.5035 19.5423 10.9183 19.1085 10.4845 18.7525C10.0507 18.3965 9.39999 18.0772 9.08078 17.6189C9.0685 17.6107 9.03986 17.6189 9.03986 17.6189C8.80659 17.4388 8.36052 17.2097 8.2623 16.9232C8.22547 16.8168 8.22137 16.7022 8.18045 16.5958C8.14771 16.5058 8.07814 16.3912 8.0986 16.2684C9.23738 17.1252 10.4415 17.8914 11.6999 18.5602H11.7408C11.8336 18.5847 11.9155 18.6256 11.9864 18.6829H12.0273C12.1419 18.6993 12.2238 18.7648 12.3138 18.8057C12.4502 18.8548 12.5866 18.8957 12.723 18.9285L12.9686 19.0103C13.0477 19.0267 13.1295 19.0403 13.2141 19.0512C13.296 19.0622 13.3642 19.0758 13.4187 19.0922C13.4842 19.084 13.5006 19.0922 13.5415 19.1331H13.5824C13.6643 19.1249 13.7338 19.1249 13.7871 19.174H13.828C13.918 19.1617 13.9671 19.1904 14.0326 19.2149H14.36C14.4255 19.2149 14.4828 19.2518 14.5237 19.2559H16.1606C16.2343 19.2027 16.3489 19.2068 16.4471 19.2149H16.488C16.5371 19.1658 16.619 19.1658 16.6927 19.174H16.7336C16.7827 19.1249 16.8645 19.1249 16.9382 19.1331H16.9791C17.0241 19.0881 17.0733 19.0922 17.1428 19.0922H17.2247C17.3679 19.0226 17.5071 18.998 17.6748 18.9694L17.8385 18.9285C17.9777 18.8712 18.1291 18.8057 18.2887 18.7648C18.3501 18.7484 18.391 18.7443 18.4524 18.7238C18.5097 18.6952 18.5342 18.6461 18.6161 18.642H18.657C18.728 18.5847 18.8098 18.5438 18.9026 18.5192H18.9435C19.0458 18.4374 19.189 18.3637 19.3118 18.3146L19.4346 18.2737C19.4919 18.2369 19.5164 18.1714 19.5983 18.1509H19.6392C19.6774 18.0909 19.732 18.05 19.8029 18.0281H19.8438C20.1426 17.713 20.6214 17.4879 20.9774 17.2383C21.3375 16.9887 21.7222 16.6244 22.1356 16.473C22.1519 16.4648 22.1765 16.473 22.1765 16.473C22.2802 16.3666 22.4029 16.2848 22.5448 16.2275C22.598 16.3298 22.5243 16.5017 22.5039 16.6367ZM21.6854 18.8875C21.6772 18.9039 21.6854 18.9285 21.6854 18.9285C21.5463 19.3213 21.1657 19.706 20.9078 20.0334C20.7603 20.2126 20.5959 20.377 20.4168 20.5245C20.0748 20.8296 19.7095 21.1074 19.3241 21.3553C18.9353 21.5926 18.5056 21.9609 18.0432 22.0387H18.0022C17.8815 22.1263 17.7409 22.1826 17.593 22.2024H17.5521C17.4211 22.3088 17.1878 22.3374 17.0201 22.3661H16.9791C16.9382 22.4043 16.8836 22.4179 16.8154 22.407H16.7745C16.7336 22.4452 16.679 22.4589 16.6108 22.4479H16.5699C16.3694 22.5421 16.1402 22.4889 15.9151 22.5298C15.8742 22.538 15.8128 22.5707 15.7514 22.5707C15.4977 22.5871 15.2276 22.583 14.9738 22.5707C14.9002 22.5707 14.8183 22.538 14.7692 22.5298H14.6055C14.5401 22.5298 14.4828 22.493 14.4418 22.4889H14.2781C14.1185 22.4766 13.918 22.4357 13.7871 22.3661H13.7461C13.6111 22.3456 13.4392 22.3252 13.3369 22.2433H13.296C13.1486 22.2392 12.9522 22.1697 12.8458 22.0796H12.8049C12.6453 22.0551 12.4775 21.9732 12.3547 21.875H12.3138C11.6549 21.7195 10.996 21.1015 10.4722 20.6882C9.81669 20.0861 9.26378 19.3812 8.83524 18.6011C9.55959 19.0717 10.2676 19.6446 10.9633 20.1562H11.0042C11.1679 20.2217 11.528 20.3772 11.6181 20.5245H11.659C11.8472 20.5654 12.0846 20.6923 12.2319 20.811H12.2729C12.3411 20.8192 12.3956 20.8464 12.4366 20.8928H12.4775C12.6125 20.9133 12.8294 20.9747 12.9276 21.0565H12.9686C13.0641 21.0565 13.1459 21.0838 13.2141 21.1384H13.255C13.3232 21.1247 13.3778 21.1384 13.4187 21.1793H13.4597C13.5279 21.1657 13.5824 21.1793 13.6234 21.2202H13.6643C13.8198 21.212 13.9876 21.2611 14.1144 21.3021H14.4828C14.5482 21.3021 14.6055 21.3348 14.6465 21.343H15.956C16.0051 21.3348 16.087 21.3021 16.1606 21.3021H16.488C16.7565 21.2275 17.0301 21.1728 17.3065 21.1384L17.5111 21.0974C17.593 21.0688 17.6626 21.0361 17.7567 21.0156L17.9204 20.9747C17.9818 20.9501 18.0432 20.9051 18.125 20.8928H18.1659C18.2478 20.8273 18.3433 20.7864 18.4524 20.7701H18.4933C18.5643 20.7128 18.6461 20.6718 18.7389 20.6473H18.7798C19.2586 20.2626 19.9093 20.0498 20.3758 19.6242C20.8505 19.2027 21.3989 18.8671 21.89 18.4783C21.8771 18.636 21.8038 18.7826 21.6854 18.8875Z" fill="#EDEDED" stroke="#EDEDED" stroke-width="0.0409241"/>
</g>
<path d="M44.6574 21V10.794H48.7594C51.6574 10.794 53.3514 12.796 53.3514 15.904C53.3514 19.012 51.6574 21 48.7594 21H44.6574ZM48.5214 19.586C50.4954 19.586 51.6854 18.312 51.6854 15.876C51.6854 13.426 50.4674 12.194 48.5214 12.194H46.2674V19.586H48.5214ZM58.1381 21.126C55.8981 21.126 54.5821 19.628 54.5821 17.332C54.5821 14.966 55.9401 13.454 58.0821 13.454C60.4761 13.454 61.6801 15.148 61.5121 17.598H56.1501C56.1361 19.11 56.9061 19.936 58.1381 19.936C59.0901 19.936 59.7061 19.488 59.9301 18.76H61.4421C61.1761 20.23 59.8881 21.126 58.1381 21.126ZM56.1221 16.59H59.9721C59.9161 15.302 59.1741 14.644 58.0681 14.644C56.9761 14.644 56.2201 15.372 56.1221 16.59ZM62.8488 23.394V13.58H64.3048L64.3608 15.036H64.4448C64.7808 14.098 65.6628 13.454 66.8108 13.454C68.6028 13.454 69.7648 14.882 69.7648 17.29C69.7648 19.712 68.6028 21.126 66.8108 21.126C65.6628 21.126 64.7808 20.51 64.4448 19.586H64.3888V23.394H62.8488ZM66.2508 19.852C67.4688 19.852 68.1828 18.9 68.1828 17.29C68.1828 15.694 67.4828 14.742 66.2928 14.742C65.0888 14.742 64.3888 15.722 64.3888 16.94V17.654C64.3888 18.872 65.0748 19.852 66.2508 19.852ZM71.269 21V10.556H72.809V21H71.269ZM77.8643 21.126C75.7223 21.126 74.2803 19.656 74.2803 17.304C74.2803 15.008 75.6383 13.454 77.8643 13.454C79.9923 13.454 81.4203 14.924 81.4203 17.29C81.4203 19.572 80.0763 21.126 77.8643 21.126ZM77.8503 19.838C79.0683 19.838 79.8523 18.942 79.8523 17.29C79.8523 15.638 79.0823 14.728 77.8643 14.728C76.6323 14.728 75.8483 15.638 75.8483 17.304C75.8483 18.942 76.6323 19.838 77.8503 19.838ZM82.4854 23.45V22.176H83.2974C83.9414 22.176 84.2774 21.938 84.5014 21.336L84.8234 20.468L81.9674 13.58H83.6614L85.5514 18.816H85.6214L86.1254 17.262L87.3854 13.58H89.0234L85.9854 21.714C85.5234 22.988 84.7954 23.45 83.5634 23.45H82.4854ZM95.6675 21C94.5335 21 93.9875 20.482 93.9875 19.278V14.84H92.6155V13.58H93.9875V11.48L95.5135 11.284V13.58H97.0955V14.84H95.5135V18.998C95.5135 19.516 95.7515 19.712 96.2135 19.712H97.1095V21H95.6675ZM101.51 21.126C99.3681 21.126 97.9261 19.656 97.9261 17.304C97.9261 15.008 99.2841 13.454 101.51 13.454C103.638 13.454 105.066 14.924 105.066 17.29C105.066 19.572 103.722 21.126 101.51 21.126ZM101.496 19.838C102.714 19.838 103.498 18.942 103.498 17.29C103.498 15.638 102.728 14.728 101.51 14.728C100.278 14.728 99.4941 15.638 99.4941 17.304C99.4941 18.942 100.278 19.838 101.496 19.838ZM109.829 21V10.794H113.931C116.829 10.794 118.523 12.796 118.523 15.904C118.523 19.012 116.829 21 113.931 21H109.829ZM113.693 19.586C115.667 19.586 116.857 18.312 116.857 15.876C116.857 13.426 115.639 12.194 113.693 12.194H111.439V19.586H113.693ZM123.421 21.126C121.279 21.126 119.837 19.656 119.837 17.304C119.837 15.008 121.195 13.454 123.421 13.454C125.549 13.454 126.977 14.924 126.977 17.29C126.977 19.572 125.633 21.126 123.421 21.126ZM123.407 19.838C124.625 19.838 125.409 18.942 125.409 17.29C125.409 15.638 124.639 14.728 123.421 14.728C122.189 14.728 121.405 15.638 121.405 17.304C121.405 18.942 122.189 19.838 123.407 19.838ZM133.455 21L131.663 18.242L131.215 17.528L130.011 18.732V21H128.457V10.556H130.011V16.968L130.641 16.282L133.203 13.58H135.051L132.307 16.464L135.247 21H133.455ZM136.303 23.394V13.58H137.759L137.815 15.036H137.899C138.235 14.098 139.117 13.454 140.265 13.454C142.057 13.454 143.219 14.882 143.219 17.29C143.219 19.712 142.057 21.126 140.265 21.126C139.117 21.126 138.235 20.51 137.899 19.586H137.843V23.394H136.303ZM139.705 19.852C140.923 19.852 141.637 18.9 141.637 17.29C141.637 15.694 140.937 14.742 139.747 14.742C138.543 14.742 137.843 15.722 137.843 16.94V17.654C137.843 18.872 138.529 19.852 139.705 19.852ZM144.724 21V10.556H146.264V21H144.724ZM151.319 21.126C149.177 21.126 147.735 19.656 147.735 17.304C147.735 15.008 149.093 13.454 151.319 13.454C153.447 13.454 154.875 14.924 154.875 17.29C154.875 19.572 153.531 21.126 151.319 21.126ZM151.305 19.838C152.523 19.838 153.307 18.942 153.307 17.29C153.307 15.638 152.537 14.728 151.319 14.728C150.087 14.728 149.303 15.638 149.303 17.304C149.303 18.942 150.087 19.838 151.305 19.838ZM155.94 23.45V22.176H156.752C157.396 22.176 157.732 21.938 157.956 21.336L158.278 20.468L155.422 13.58H157.116L159.006 18.816H159.076L159.58 17.262L160.84 13.58H162.478L159.44 21.714C158.978 22.988 158.25 23.45 157.018 23.45H155.94Z" fill="#EDEDED"/>
</g>
<rect x="0.5" y="0.5" width="174" height="31" rx="5.5" stroke="#3A3A3A"/>
<defs>
<clipPath id="clip0_97_38">
<rect width="175" height="32" rx="6" fill="white"/>
</clipPath>
<clipPath id="clip1_97_38">
<rect width="17.5216" height="14.8604" fill="white" transform="translate(7.2392 8.56982)"/>
</clipPath>
</defs>
</svg>
