<svg width="172" height="32" viewBox="0 0 172 32" fill="none" xmlns="http://www.w3.org/2000/svg">
<g clip-path="url(#clip0_97_54)">
<rect width="172" height="32" rx="6" fill="url(#paint0_linear_97_54)"/>
<mask id="path-3-inside-1_97_54" fill="white">
<path d="M0 0H32V32H0V0Z"/>
</mask>
<path d="M32 0H31V32H32H33V0H32Z" fill="#FDFDFF" fill-opacity="0.1" mask="url(#path-3-inside-1_97_54)"/>
<path fill-rule="evenodd" clip-rule="evenodd" d="M8.60075 11.8244C10.0599 9.24533 12.8238 7.5 16 7.5C20.6948 7.5 24.5 11.3059 24.5 16C24.4994 16.9061 24.3535 17.8062 24.0679 18.6662H7.93208C7.78916 18.2287 7.68231 17.7802 7.61263 17.3253L7.76279 18.0393H19.587C20.3407 18.0393 20.9633 17.6533 21.2516 17.0073C21.5661 16.3032 21.4336 15.5693 20.9711 14.9297C20.4717 14.2391 19.633 13.2701 19.0522 12.8302C17.9826 12.0206 16.6226 11.9023 15.5169 11.8647L15.1989 11.8534L15.1068 11.8492C14.6641 11.83 14.4233 11.8201 11.9632 11.8201V11.8208C11.9632 11.8208 9.74117 11.8222 8.60075 11.8244ZM7.51842 15.6345C7.53046 15.3476 7.55667 15.0622 7.59704 14.7788H14.3779V13.9175H7.76775C7.76716 13.9204 7.76645 13.9232 7.76562 13.926L7.7635 13.9331L7.61192 14.6804C7.71854 13.9955 7.90811 13.3262 8.17646 12.6871C9.45004 12.6836 10.7583 12.68 11.9611 12.68C14.2136 12.68 14.5968 12.69 15.1628 12.7133C15.3165 12.7197 15.4659 12.724 15.6125 12.7275C17.083 12.7665 18.2461 12.7969 20.2514 15.3894C20.3123 15.4673 20.3732 15.546 20.4179 15.6345H7.51842ZM8.56958 11.8782C8.42438 12.1403 8.29333 12.4095 8.17646 12.6871H8.16937C8.28696 12.4087 8.42367 12.141 8.56958 11.8782ZM7.52479 16.4965H20.5199C20.4221 16.8734 20.1232 17.1765 19.5884 17.1765H7.59067C7.55984 16.9508 7.53786 16.724 7.52479 16.4965ZM7.93704 18.6775C8.03479 18.9658 8.14671 19.2498 8.2735 19.5268H23.7279C22.387 22.4593 19.4354 24.5 16 24.5C12.2423 24.5 9.06046 22.0584 7.93704 18.6775ZM7.50708 15.8406L7.51417 15.7287V16.2692C7.51275 16.2309 7.50992 16.1934 7.50708 16.1558C7.50354 16.1034 7.5 16.0517 7.5 15.9986C7.5 15.9455 7.50354 15.893 7.50708 15.8406Z" fill="white"/>
<path fill-rule="evenodd" clip-rule="evenodd" d="M8.60075 11.8244C10.0599 9.24533 12.8238 7.5 16 7.5C20.6948 7.5 24.5 11.3059 24.5 16C24.4994 16.9061 24.3535 17.8062 24.0679 18.6662H7.93208C7.78916 18.2287 7.68231 17.7802 7.61263 17.3253L7.76279 18.0393H19.587C20.3407 18.0393 20.9633 17.6533 21.2516 17.0073C21.5661 16.3032 21.4336 15.5693 20.9711 14.9297C20.4717 14.2391 19.633 13.2701 19.0522 12.8302C17.9826 12.0206 16.6226 11.9023 15.5169 11.8647L15.1989 11.8534L15.1068 11.8492C14.6641 11.83 14.4233 11.8201 11.9632 11.8201V11.8208C11.9632 11.8208 9.74117 11.8222 8.60075 11.8244ZM7.51842 15.6345C7.53046 15.3476 7.55667 15.0622 7.59704 14.7788H14.3779V13.9175H7.76775C7.76716 13.9204 7.76645 13.9232 7.76562 13.926L7.7635 13.9331L7.61192 14.6804C7.71854 13.9955 7.90811 13.3262 8.17646 12.6871C9.45004 12.6836 10.7583 12.68 11.9611 12.68C14.2136 12.68 14.5968 12.69 15.1628 12.7133C15.3165 12.7197 15.4659 12.724 15.6125 12.7275C17.083 12.7665 18.2461 12.7969 20.2514 15.3894C20.3123 15.4673 20.3732 15.546 20.4179 15.6345H7.51842ZM8.56958 11.8782C8.42438 12.1403 8.29333 12.4095 8.17646 12.6871H8.16937C8.28696 12.4087 8.42367 12.141 8.56958 11.8782ZM7.52479 16.4965H20.5199C20.4221 16.8734 20.1232 17.1765 19.5884 17.1765H7.59067C7.55984 16.9508 7.53786 16.724 7.52479 16.4965ZM7.93704 18.6775C8.03479 18.9658 8.14671 19.2498 8.2735 19.5268H23.7279C22.387 22.4593 19.4354 24.5 16 24.5C12.2423 24.5 9.06046 22.0584 7.93704 18.6775ZM7.50708 15.8406L7.51417 15.7287V16.2692C7.51275 16.2309 7.50992 16.1934 7.50708 16.1558C7.50354 16.1034 7.5 16.0517 7.5 15.9986C7.5 15.9455 7.50354 15.893 7.50708 15.8406Z" fill="url(#paint1_linear_97_54)" fill-opacity="0.1"/>
<path d="M44.6574 21V10.794H48.7594C51.6574 10.794 53.3514 12.796 53.3514 15.904C53.3514 19.012 51.6574 21 48.7594 21H44.6574ZM48.5214 19.586C50.4954 19.586 51.6854 18.312 51.6854 15.876C51.6854 13.426 50.4674 12.194 48.5214 12.194H46.2674V19.586H48.5214ZM58.1381 21.126C55.8981 21.126 54.5821 19.628 54.5821 17.332C54.5821 14.966 55.9401 13.454 58.0821 13.454C60.4761 13.454 61.6801 15.148 61.5121 17.598H56.1501C56.1361 19.11 56.9061 19.936 58.1381 19.936C59.0901 19.936 59.7061 19.488 59.9301 18.76H61.4421C61.1761 20.23 59.8881 21.126 58.1381 21.126ZM56.1221 16.59H59.9721C59.9161 15.302 59.1741 14.644 58.0681 14.644C56.9761 14.644 56.2201 15.372 56.1221 16.59ZM62.8488 23.394V13.58H64.3048L64.3608 15.036H64.4448C64.7808 14.098 65.6628 13.454 66.8108 13.454C68.6028 13.454 69.7648 14.882 69.7648 17.29C69.7648 19.712 68.6028 21.126 66.8108 21.126C65.6628 21.126 64.7808 20.51 64.4448 19.586H64.3888V23.394H62.8488ZM66.2508 19.852C67.4688 19.852 68.1828 18.9 68.1828 17.29C68.1828 15.694 67.4828 14.742 66.2928 14.742C65.0888 14.742 64.3888 15.722 64.3888 16.94V17.654C64.3888 18.872 65.0748 19.852 66.2508 19.852ZM71.269 21V10.556H72.809V21H71.269ZM77.8643 21.126C75.7223 21.126 74.2803 19.656 74.2803 17.304C74.2803 15.008 75.6383 13.454 77.8643 13.454C79.9923 13.454 81.4203 14.924 81.4203 17.29C81.4203 19.572 80.0763 21.126 77.8643 21.126ZM77.8503 19.838C79.0683 19.838 79.8523 18.942 79.8523 17.29C79.8523 15.638 79.0823 14.728 77.8643 14.728C76.6323 14.728 75.8483 15.638 75.8483 17.304C75.8483 18.942 76.6323 19.838 77.8503 19.838ZM82.4854 23.45V22.176H83.2974C83.9414 22.176 84.2774 21.938 84.5014 21.336L84.8234 20.468L81.9674 13.58H83.6614L85.5514 18.816H85.6214L86.1254 17.262L87.3854 13.58H89.0234L85.9854 21.714C85.5234 22.988 84.7954 23.45 83.5634 23.45H82.4854ZM95.6675 21C94.5335 21 93.9875 20.482 93.9875 19.278V14.84H92.6155V13.58H93.9875V11.48L95.5135 11.284V13.58H97.0955V14.84H95.5135V18.998C95.5135 19.516 95.7515 19.712 96.2135 19.712H97.1095V21H95.6675ZM101.51 21.126C99.3681 21.126 97.9261 19.656 97.9261 17.304C97.9261 15.008 99.2841 13.454 101.51 13.454C103.638 13.454 105.066 14.924 105.066 17.29C105.066 19.572 103.722 21.126 101.51 21.126ZM101.496 19.838C102.714 19.838 103.498 18.942 103.498 17.29C103.498 15.638 102.728 14.728 101.51 14.728C100.278 14.728 99.4941 15.638 99.4941 17.304C99.4941 18.942 100.278 19.838 101.496 19.838ZM109.843 21V10.794H114.673C116.689 10.794 117.907 11.746 117.907 13.552C117.907 14.826 117.249 15.694 116.031 16.03V16.114C117.179 16.324 117.683 16.968 117.683 18.144V19.838C117.683 20.258 117.697 20.65 117.851 21H116.213C116.101 20.762 116.045 20.342 116.045 19.824V18.438C116.045 17.444 115.653 16.912 114.309 16.912H111.467V21H109.843ZM111.467 15.582H114.323C115.667 15.582 116.241 14.882 116.241 13.832C116.241 12.642 115.471 12.166 114.323 12.166H111.467V15.582ZM122.177 21.126C120.385 21.126 119.223 19.684 119.223 17.29C119.223 14.882 120.385 13.454 122.177 13.454C123.339 13.454 124.221 14.056 124.571 15.036H124.627L124.683 13.58H126.139V21H124.683L124.627 19.53H124.571C124.221 20.51 123.325 21.126 122.177 21.126ZM122.695 19.838C123.885 19.838 124.599 18.816 124.599 17.612V16.982C124.599 15.764 123.899 14.728 122.723 14.728C121.505 14.728 120.805 15.666 120.805 17.29C120.805 18.9 121.505 19.838 122.695 19.838ZM127.938 21V13.58H129.478V21H127.938ZM128.708 12.418C128.162 12.418 127.756 12.026 127.756 11.494C127.756 10.962 128.162 10.57 128.708 10.57C129.268 10.57 129.674 10.962 129.674 11.494C129.674 12.026 129.268 12.418 128.708 12.418ZM131.299 21V10.556H132.839V21H131.299ZM135.835 21L133.959 13.58H135.541L136.465 17.514L136.913 19.474H136.983L137.403 17.514L138.313 13.58H139.937L140.875 17.514L141.295 19.502H141.365L141.799 17.514L142.723 13.58H144.249L142.345 21H140.427L139.559 17.458L139.097 15.414H139.041L138.607 17.458L137.753 21H135.835ZM147.873 21.126C146.081 21.126 144.919 19.684 144.919 17.29C144.919 14.882 146.081 13.454 147.873 13.454C149.035 13.454 149.917 14.056 150.267 15.036H150.323L150.379 13.58H151.835V21H150.379L150.323 19.53H150.267C149.917 20.51 149.021 21.126 147.873 21.126ZM148.391 19.838C149.581 19.838 150.295 18.816 150.295 17.612V16.982C150.295 15.764 149.595 14.728 148.419 14.728C147.201 14.728 146.501 15.666 146.501 17.29C146.501 18.9 147.201 19.838 148.391 19.838ZM153.438 23.45V22.176H154.25C154.894 22.176 155.23 21.938 155.454 21.336L155.776 20.468L152.92 13.58H154.614L156.504 18.816H156.574L157.078 17.262L158.338 13.58H159.976L156.938 21.714C156.476 22.988 155.748 23.45 154.516 23.45H153.438Z" fill="#EDEDED"/>
</g>
<rect x="0.5" y="0.5" width="171" height="31" rx="5.5" stroke="#FDFDFF" stroke-opacity="0.1"/>
<defs>
<linearGradient id="paint0_linear_97_54" x1="170.12" y1="5.35269e-06" x2="27.4377" y2="40.5563" gradientUnits="userSpaceOnUse">
<stop stop-color="#B63BCE"/>
<stop offset="1" stop-color="#5016A1"/>
</linearGradient>
<linearGradient id="paint1_linear_97_54" x1="12.8125" y1="24.5" x2="12.8125" y2="7.5" gradientUnits="userSpaceOnUse">
<stop stop-color="#5B1BA7"/>
<stop offset="1" stop-color="white" stop-opacity="0"/>
</linearGradient>
<clipPath id="clip0_97_54">
<rect width="172" height="32" rx="6" fill="white"/>
</clipPath>
</defs>
</svg>
