<svg width="185" height="32" viewBox="0 0 185 32" fill="none" xmlns="http://www.w3.org/2000/svg">
<rect x="0.5" y="0.5" width="184" height="31" rx="5.5" fill="#2A1A51" stroke="#622DE3"/>
<path d="M31.5 1V31" stroke="#622DE3"/>
<g clip-path="url(#clip0_78_85)">
<path d="M13.1757 13.6349H10.4386V22.1599H13.1757V13.6349ZM13.1757 25.0005H24.1269V22.1599H13.1757V25.0005ZM13.1757 13.6349H24.1269V10.7943H13.1757V13.6349Z" fill="#8C52FF" fill-opacity="0.302"/>
<path d="M12.3097 12.7393H9.57269V21.2612H12.3097V12.7393ZM12.3097 24.1018H23.261V21.2612H12.3097V24.1018ZM12.3097 12.7393H23.261V9.89868H12.3097V12.7393Z" fill="#8C52FF" fill-opacity="0.502"/>
<path d="M11.4467 11.8406H8.70962V20.3656H11.4467V11.8406ZM11.4467 23.2063H22.3979V20.3656H11.4467V23.2063ZM11.4467 11.8406H22.3979V9H11.4467V11.8406Z" fill="#8C52FF"/>
</g>
<path d="M44.204 21V11.06H47.396C48.9547 11.06 50.154 11.494 50.994 12.362C51.834 13.2207 52.254 14.448 52.254 16.044C52.254 17.6307 51.8387 18.8533 51.008 19.712C50.1867 20.5707 49.0107 21 47.48 21H44.204ZM45.716 19.614H47.396C48.4973 19.614 49.3187 19.32 49.86 18.732C50.4107 18.1347 50.686 17.2387 50.686 16.044C50.686 14.8307 50.4107 13.93 49.86 13.342C49.3187 12.7447 48.4973 12.446 47.396 12.446H45.716V19.614ZM57.2212 21.168C56.4932 21.168 55.8632 21.0093 55.3312 20.692C54.8085 20.3747 54.4025 19.922 54.1132 19.334C53.8332 18.746 53.6932 18.06 53.6932 17.276C53.6932 16.492 53.8332 15.8107 54.1132 15.232C54.4025 14.644 54.8085 14.1913 55.3312 13.874C55.8538 13.5473 56.4698 13.384 57.1792 13.384C57.8512 13.384 58.4438 13.5427 58.9572 13.86C59.4705 14.168 59.8672 14.616 60.1472 15.204C60.4365 15.792 60.5812 16.5013 60.5812 17.332V17.71H55.2332C55.2705 18.438 55.4618 18.984 55.8072 19.348C56.1618 19.712 56.6378 19.894 57.2352 19.894C57.6738 19.894 58.0378 19.7913 58.3272 19.586C58.6165 19.3807 58.8172 19.1053 58.9292 18.76L60.4692 18.858C60.2732 19.5487 59.8858 20.1087 59.3072 20.538C58.7378 20.958 58.0425 21.168 57.2212 21.168ZM55.2332 16.59H59.0132C58.9665 15.9273 58.7752 15.4373 58.4392 15.12C58.1125 14.8027 57.6925 14.644 57.1792 14.644C56.6472 14.644 56.2085 14.812 55.8632 15.148C55.5272 15.4747 55.3172 15.9553 55.2332 16.59ZM62.1548 23.1V13.552H63.5548L63.5968 15.148L63.4288 15.064C63.6155 14.5133 63.9235 14.098 64.3528 13.818C64.7822 13.5287 65.2768 13.384 65.8368 13.384C66.5648 13.384 67.1622 13.566 67.6288 13.93C68.1048 14.2847 68.4548 14.756 68.6788 15.344C68.9122 15.932 69.0288 16.576 69.0288 17.276C69.0288 17.976 68.9122 18.62 68.6788 19.208C68.4548 19.796 68.1048 20.272 67.6288 20.636C67.1622 20.9907 66.5648 21.168 65.8368 21.168C65.4635 21.168 65.1135 21.1027 64.7868 20.972C64.4602 20.8413 64.1802 20.6593 63.9468 20.426C63.7228 20.1833 63.5642 19.8987 63.4708 19.572L63.6388 19.404V23.1H62.1548ZM65.5708 19.88C66.1682 19.88 66.6348 19.6513 66.9708 19.194C67.3162 18.7367 67.4888 18.0973 67.4888 17.276C67.4888 16.4547 67.3162 15.8153 66.9708 15.358C66.6348 14.9007 66.1682 14.672 65.5708 14.672C65.1788 14.672 64.8382 14.77 64.5488 14.966C64.2595 15.1527 64.0355 15.442 63.8768 15.834C63.7182 16.226 63.6388 16.7067 63.6388 17.276C63.6388 17.8453 63.7135 18.326 63.8628 18.718C64.0215 19.11 64.2455 19.404 64.5348 19.6C64.8335 19.7867 65.1788 19.88 65.5708 19.88ZM72.2981 21C71.8127 21 71.4207 20.874 71.1221 20.622C70.8234 20.37 70.6741 19.9687 70.6741 19.418V11.06H72.1581V19.278C72.1581 19.446 72.2001 19.572 72.2841 19.656C72.3774 19.74 72.5081 19.782 72.6761 19.782H73.2641V21H72.2981ZM77.6655 21.168C76.9562 21.168 76.3355 21.0093 75.8035 20.692C75.2715 20.3747 74.8609 19.922 74.5715 19.334C74.2822 18.746 74.1375 18.06 74.1375 17.276C74.1375 16.4827 74.2822 15.7967 74.5715 15.218C74.8609 14.6393 75.2715 14.1913 75.8035 13.874C76.3355 13.5473 76.9562 13.384 77.6655 13.384C78.3749 13.384 78.9955 13.5473 79.5275 13.874C80.0595 14.1913 80.4702 14.6393 80.7595 15.218C81.0489 15.7967 81.1935 16.4827 81.1935 17.276C81.1935 18.06 81.0489 18.746 80.7595 19.334C80.4702 19.922 80.0595 20.3747 79.5275 20.692C78.9955 21.0093 78.3749 21.168 77.6655 21.168ZM77.6655 19.88C78.3002 19.88 78.7902 19.6513 79.1355 19.194C79.4809 18.7273 79.6535 18.088 79.6535 17.276C79.6535 16.464 79.4809 15.8293 79.1355 15.372C78.7902 14.9053 78.3002 14.672 77.6655 14.672C77.0402 14.672 76.5502 14.9053 76.1955 15.372C75.8502 15.8293 75.6775 16.464 75.6775 17.276C75.6775 18.088 75.8502 18.7273 76.1955 19.194C76.5502 19.6513 77.0402 19.88 77.6655 19.88ZM82.9509 23.1V21.882H83.8609C84.1129 21.882 84.2995 21.8447 84.4209 21.77C84.5422 21.6953 84.6355 21.5693 84.7009 21.392L84.9389 20.776H84.4769L81.7889 13.552H83.3569L85.4009 19.404L87.3469 13.552H88.9289L85.9609 21.868C85.8115 22.2973 85.5875 22.61 85.2889 22.806C84.9995 23.002 84.5935 23.1 84.0709 23.1H82.9509ZM95.3394 21L93.0714 13.552H94.6254L96.2214 19.376L97.8594 13.552H99.2594L100.897 19.376L102.507 13.552H104.061L101.793 21H100.127L98.5594 15.68L96.9914 21H95.3394ZM105.354 21V13.552H106.838V21H105.354ZM105.326 12.474V10.99H106.866V12.474H105.326ZM111.356 21C110.647 21 110.124 20.8367 109.788 20.51C109.452 20.1833 109.284 19.6747 109.284 18.984V11.802H110.768V18.872C110.768 19.2173 110.843 19.4553 110.992 19.586C111.142 19.7167 111.37 19.782 111.678 19.782H112.742V21H111.356ZM108.15 14.77V13.552H112.742V14.77H108.15ZM114.23 21V11.06H115.714V15.232L115.532 15.204C115.616 14.784 115.77 14.4433 115.994 14.182C116.218 13.9113 116.494 13.7107 116.82 13.58C117.147 13.4493 117.506 13.384 117.898 13.384C118.44 13.384 118.897 13.5053 119.27 13.748C119.644 13.9813 119.924 14.3127 120.11 14.742C120.306 15.1713 120.404 15.6613 120.404 16.212V21H118.92V16.604C118.92 15.932 118.804 15.4373 118.57 15.12C118.346 14.7933 117.992 14.63 117.506 14.63C116.965 14.63 116.531 14.8027 116.204 15.148C115.878 15.484 115.714 15.9787 115.714 16.632V21H114.23ZM130.148 21.224C129.252 21.224 128.464 21.0187 127.782 20.608C127.101 20.188 126.569 19.5907 126.186 18.816C125.804 18.0413 125.612 17.1173 125.612 16.044C125.612 14.98 125.799 14.0607 126.172 13.286C126.555 12.502 127.087 11.9 127.768 11.48C128.45 11.0507 129.248 10.836 130.162 10.836C131.394 10.836 132.351 11.144 133.032 11.76C133.714 12.376 134.157 13.23 134.362 14.322L132.78 14.406C132.65 13.7247 132.37 13.1927 131.94 12.81C131.511 12.418 130.918 12.222 130.162 12.222C129.556 12.222 129.028 12.376 128.58 12.684C128.142 12.992 127.796 13.4307 127.544 14C127.302 14.5693 127.18 15.2507 127.18 16.044C127.18 16.8373 127.302 17.5187 127.544 18.088C127.796 18.6573 128.146 19.0913 128.594 19.39C129.042 19.6887 129.56 19.838 130.148 19.838C130.951 19.838 131.572 19.628 132.01 19.208C132.458 18.7787 132.738 18.1907 132.85 17.444L134.432 17.528C134.311 18.284 134.068 18.9373 133.704 19.488C133.34 20.0387 132.86 20.468 132.262 20.776C131.665 21.0747 130.96 21.224 130.148 21.224ZM139.053 21.168C138.344 21.168 137.723 21.0093 137.191 20.692C136.659 20.3747 136.249 19.922 135.959 19.334C135.67 18.746 135.525 18.06 135.525 17.276C135.525 16.4827 135.67 15.7967 135.959 15.218C136.249 14.6393 136.659 14.1913 137.191 13.874C137.723 13.5473 138.344 13.384 139.053 13.384C139.763 13.384 140.383 13.5473 140.915 13.874C141.447 14.1913 141.858 14.6393 142.147 15.218C142.437 15.7967 142.581 16.4827 142.581 17.276C142.581 18.06 142.437 18.746 142.147 19.334C141.858 19.922 141.447 20.3747 140.915 20.692C140.383 21.0093 139.763 21.168 139.053 21.168ZM139.053 19.88C139.688 19.88 140.178 19.6513 140.523 19.194C140.869 18.7273 141.041 18.088 141.041 17.276C141.041 16.464 140.869 15.8293 140.523 15.372C140.178 14.9053 139.688 14.672 139.053 14.672C138.428 14.672 137.938 14.9053 137.583 15.372C137.238 15.8293 137.065 16.464 137.065 17.276C137.065 18.088 137.238 18.7273 137.583 19.194C137.938 19.6513 138.428 19.88 139.053 19.88ZM147.217 21.168C146.508 21.168 145.887 21.0093 145.355 20.692C144.823 20.3747 144.412 19.922 144.123 19.334C143.834 18.746 143.689 18.06 143.689 17.276C143.689 16.4827 143.834 15.7967 144.123 15.218C144.412 14.6393 144.823 14.1913 145.355 13.874C145.887 13.5473 146.508 13.384 147.217 13.384C147.926 13.384 148.547 13.5473 149.079 13.874C149.611 14.1913 150.022 14.6393 150.311 15.218C150.6 15.7967 150.745 16.4827 150.745 17.276C150.745 18.06 150.6 18.746 150.311 19.334C150.022 19.922 149.611 20.3747 149.079 20.692C148.547 21.0093 147.926 21.168 147.217 21.168ZM147.217 19.88C147.852 19.88 148.342 19.6513 148.687 19.194C149.032 18.7273 149.205 18.088 149.205 17.276C149.205 16.464 149.032 15.8293 148.687 15.372C148.342 14.9053 147.852 14.672 147.217 14.672C146.592 14.672 146.102 14.9053 145.747 15.372C145.402 15.8293 145.229 16.464 145.229 17.276C145.229 18.088 145.402 18.7273 145.747 19.194C146.102 19.6513 146.592 19.88 147.217 19.88ZM154.007 21C153.522 21 153.13 20.874 152.831 20.622C152.533 20.37 152.383 19.9687 152.383 19.418V11.06H153.867V19.278C153.867 19.446 153.909 19.572 153.993 19.656C154.087 19.74 154.217 19.782 154.385 19.782H154.973V21H154.007ZM156.295 21V13.552H157.779V21H156.295ZM156.267 12.474V10.99H157.807V12.474H156.267ZM160.252 21V13.076C160.252 12.46 160.425 11.97 160.77 11.606C161.115 11.242 161.657 11.06 162.394 11.06H163.71V12.278H162.59C162.301 12.278 162.086 12.3573 161.946 12.516C161.806 12.6653 161.736 12.88 161.736 13.16V21H160.252ZM159.216 14.854V13.65H163.598V14.854H159.216ZM165.755 23.1V21.882H166.665C166.917 21.882 167.104 21.8447 167.225 21.77C167.347 21.6953 167.44 21.5693 167.505 21.392L167.743 20.776H167.281L164.593 13.552H166.161L168.205 19.404L170.151 13.552H171.733L168.765 21.868C168.616 22.2973 168.392 22.61 168.093 22.806C167.804 23.002 167.398 23.1 166.875 23.1H165.755Z" fill="#EDEDED"/>
<defs>
<clipPath id="clip0_78_85">
<rect width="15.4167" height="16" fill="white" transform="translate(8.70834 9)"/>
</clipPath>
</defs>
</svg>
