<svg width="192" height="32" viewBox="0 0 192 32" fill="none" xmlns="http://www.w3.org/2000/svg">
<rect x="0.5" y="0.5" width="191" height="31" rx="5.5" fill="#1A1A1A" stroke="#3A3A3A"/>
<path d="M31.5 1V31" stroke="white" stroke-opacity="0.14"/>
<g clip-path="url(#clip0_78_84)">
<path d="M20.4265 8.30801V8.7991C20.4306 8.89323 20.4469 8.9628 20.4674 9.04464C20.569 9.39957 20.7355 9.73259 20.9585 10.0268C21.0403 10.1209 21.1918 10.1905 21.245 10.3133C21.4087 10.4524 21.6378 10.5916 21.8179 10.6816C21.8875 10.7062 22.0512 10.7266 22.1044 10.7635C22.1821 10.8167 22.2231 10.8576 22.1044 10.9272V10.9681C22.0798 11.0417 22.0266 11.1113 21.9816 11.1727C21.8998 11.2818 21.8043 11.3773 21.6951 11.4592C21.5192 11.5901 21.3064 11.7374 21.0813 11.7456H21.0403C20.9858 11.7893 20.9176 11.8166 20.8357 11.8275H20.672C20.4592 11.8561 20.1441 11.9175 19.9354 11.8275H19.6899C19.6244 11.8275 19.5671 11.7947 19.5262 11.7866H19.4034C19.3171 11.7749 19.2338 11.7471 19.1578 11.7047H19.1169C19.0146 11.7006 18.9532 11.6556 18.8714 11.6229L18.7077 11.5819C18.3639 11.5001 17.8769 11.3118 17.6027 11.0908H17.5618C17.3735 11.0499 17.173 10.9149 17.0011 10.833C16.8293 10.7512 16.5714 10.7103 16.4569 10.5588H16.4159C16.2522 10.5179 16.0517 10.4156 15.9248 10.3133H15.8839C15.6056 10.2478 15.3273 10.0677 15.0654 9.94497C14.7994 9.83039 14.4679 9.71171 14.2469 9.53573H14.206C13.9196 9.48662 13.5758 9.37204 13.3057 9.29019H9.33606C9.11916 9.46616 8.7754 9.46616 8.57078 9.71171C8.36616 9.95725 8.182 10.1496 8.06741 10.4361C8.05104 10.4974 8.03467 10.5302 8.02649 10.5998C8.0183 10.6652 7.99375 10.7635 7.98557 10.8044V12.8915C7.99375 12.9406 8.0183 13.0225 8.02649 13.0961C8.03467 13.178 8.04695 13.2271 8.06741 13.3008C8.13519 13.4711 8.21733 13.6354 8.31296 13.7918C8.3457 13.8205 8.37025 13.8819 8.39481 13.9146C8.46847 13.9965 8.59533 14.0538 8.64035 14.1602C9.02913 14.4998 9.60207 14.5817 9.99085 14.8968H10.0318C10.2405 14.9459 10.5229 15.0932 10.6866 15.2242H10.7275C10.8912 15.2651 11.0917 15.3674 11.2186 15.4697H11.2595C11.385 15.5025 11.4941 15.557 11.5869 15.6334H11.6278C11.7097 15.6375 11.7342 15.6866 11.7915 15.7153C11.857 15.748 11.902 15.7439 11.9552 15.7971H11.9961C12.0643 15.8053 12.1189 15.8326 12.1598 15.879H12.2007C12.3235 15.9076 12.4749 15.9608 12.5691 16.0427H12.61C12.8023 16.0754 13.1584 16.1695 13.3057 16.2882H13.3466C13.4489 16.2923 13.5103 16.3414 13.5922 16.3701C13.6658 16.3864 13.7149 16.4028 13.7968 16.411C13.8786 16.4219 13.9468 16.4355 14.0014 16.4519C14.0669 16.4437 14.0833 16.4519 14.1242 16.4928H14.1651C14.2333 16.4792 14.2879 16.4928 14.3288 16.5338H14.3697C14.4379 16.5201 14.4925 16.5338 14.5334 16.5747H14.5743C14.6644 16.5665 14.7585 16.5624 14.8199 16.6156H14.8608C14.9699 16.6047 15.0654 16.6183 15.1473 16.6565H16.9889C17.038 16.6483 17.1157 16.6156 17.1935 16.6156H17.439C17.5004 16.591 17.5577 16.5624 17.6436 16.5747H17.6846C17.7255 16.5365 17.7801 16.5228 17.8483 16.5338H17.8892C17.9301 16.4956 17.9847 16.4819 18.0529 16.4928H18.0938C18.192 16.4396 18.2984 16.4274 18.4212 16.411L18.6258 16.3701C18.7077 16.3414 18.7732 16.3046 18.8714 16.2882C19.0351 16.2596 19.166 16.2186 19.3215 16.1654C19.4157 16.1245 19.4934 16.0631 19.608 16.0427H19.6489C19.6899 15.9963 19.7444 15.969 19.8126 15.9608H19.8535C19.9313 15.8994 20.0132 15.879 20.0991 15.838C20.1782 15.7944 20.2601 15.7535 20.3446 15.7153C20.4989 15.6567 20.6492 15.5883 20.7948 15.5107C20.9749 15.3961 21.159 15.2651 21.3677 15.1833C21.3677 15.1833 21.3923 15.1914 21.4087 15.1833C21.4823 15.0687 21.6951 14.9868 21.8179 14.9377C21.8179 14.9377 21.8425 14.9459 21.8588 14.9377C21.9202 14.8395 22.0757 14.774 22.1862 14.7331C22.1862 14.7331 22.2108 14.7413 22.2271 14.7331C22.2885 14.6349 22.444 14.5694 22.5545 14.5285C22.5545 14.5285 22.5791 14.5367 22.5955 14.5285C22.6487 14.4466 22.751 14.4016 22.841 14.3648C22.841 14.3648 22.8656 14.373 22.8819 14.3648C22.9638 14.242 23.197 14.1356 23.3321 14.0783L23.5367 13.9965C23.7945 13.8409 24.0196 13.6036 24.2734 13.4235V13.3826C24.2734 13.3048 24.257 13.2107 24.2734 13.1371C24.2324 12.9529 24.1137 12.912 23.9869 12.8097H23.946C23.8968 12.8097 23.8314 12.8015 23.7823 12.8097C23.418 12.8792 23.107 13.2721 22.751 13.4153C22.3908 13.5545 22.0594 13.8532 21.6951 13.9965H21.6542C21.2081 14.4303 20.4592 14.6512 19.9068 14.95C19.3543 15.2487 18.5317 15.6171 17.8892 15.6334H17.8483C17.8073 15.6716 17.7528 15.6853 17.6846 15.6743H17.6436C17.6027 15.7125 17.5482 15.7262 17.48 15.7153H17.439C17.3776 15.7685 17.2794 15.7644 17.1935 15.7562H17.1526C17.083 15.8094 16.9643 15.8053 16.8661 15.7971C16.8252 15.8053 16.7679 15.838 16.7024 15.838H16.4978C16.2277 15.838 15.9494 15.8544 15.6793 15.838C15.6015 15.834 15.5688 15.8503 15.5156 15.7971H15.1882C15.0736 15.7889 14.9549 15.7439 14.8608 15.7153H14.779C14.6235 15.7262 14.487 15.6989 14.3697 15.6334H14.3288C14.206 15.6334 14.0969 15.6061 14.0014 15.5516H13.9605C13.8719 15.5516 13.7858 15.5229 13.7149 15.4697H13.674C13.4326 15.4615 13.1829 15.3142 12.9783 15.2242L12.8146 15.1833C12.745 15.1628 12.7 15.1546 12.6509 15.1014H12.61C12.5418 15.096 12.4872 15.0687 12.4463 15.0196H12.4054C12.3126 14.995 12.2308 14.9541 12.1598 14.8968H12.1189C11.9757 14.8641 11.8202 14.7781 11.7097 14.6922H11.6687C11.5992 14.6922 11.5787 14.6635 11.546 14.6103H11.505C11.0303 14.4998 10.5556 14.1397 10.1054 13.9637C9.65527 13.7918 9.0455 13.5872 8.8859 13.0961H9.04959C9.71256 13.0961 10.3919 13.0552 11.0549 13.0961C11.1244 13.1002 11.1776 13.1289 11.2186 13.1371C11.3045 13.1534 11.3577 13.1166 11.4232 13.178H11.4641C11.6114 13.1821 11.8079 13.2516 11.9143 13.3417H11.9552C12.2219 13.3951 12.4735 13.5069 12.6918 13.6691H12.7328C12.8583 13.7018 12.9674 13.7564 13.0602 13.8328H13.1011C13.273 13.8737 13.4407 13.9719 13.5922 14.0374C13.6849 14.0701 13.7804 14.0974 13.8786 14.1192C14.1119 14.1724 14.4106 14.2134 14.6153 14.3239H14.6562C14.8076 14.3157 14.9427 14.3689 15.0654 14.4057H15.4337C15.4992 14.4057 15.5565 14.4384 15.5974 14.4466H16.907C16.997 14.3811 17.1526 14.4057 17.2753 14.4057H17.3163C17.6042 14.2979 17.9091 14.2424 18.2166 14.242C18.3196 14.1943 18.4307 14.1666 18.544 14.1602C18.6135 14.1029 18.6954 14.0947 18.7895 14.0783C18.9561 14.05 19.1203 14.0089 19.2806 13.9555C19.3747 13.9146 19.4525 13.8532 19.5671 13.8328H19.608C19.6489 13.7864 19.7035 13.7591 19.7717 13.7509H19.8126C19.8904 13.6895 19.96 13.6609 20.0582 13.6281L20.1809 13.5872C20.3487 13.4931 20.5247 13.3744 20.713 13.3008C20.713 13.3008 20.7375 13.3089 20.7539 13.3008C20.8153 13.2025 21.0117 13.0961 21.1222 13.0552C21.1222 13.0552 21.1468 13.0634 21.1631 13.0552C21.38 12.7237 21.8834 12.5437 22.178 12.2285C22.4686 11.9093 22.6773 11.4592 22.9638 11.1727V11.1318C22.9752 11.0582 23.0032 10.9883 23.0456 10.9272C23.1316 10.8371 23.4099 10.8862 23.5367 10.8862C23.5913 10.8917 23.6458 10.8917 23.7004 10.8862C23.7413 10.878 23.7945 10.8371 23.8641 10.8453H23.905C23.9623 10.8044 24.0305 10.7771 24.1097 10.7635H24.1506C24.2079 10.7116 24.2761 10.6707 24.3552 10.6407C24.3552 10.6407 24.3798 10.6489 24.3961 10.6407C24.7644 10.2601 25.1328 10.0105 25.3374 9.49481C25.3824 9.38022 25.4806 9.2329 25.5011 9.12649C25.5093 9.08557 25.5093 9.00372 25.5011 8.9628C25.4397 8.71725 24.9977 8.86458 24.8586 9.05692C24.7194 9.24927 24.302 9.29019 24.0687 9.29019H23.7823C23.4631 9.46616 22.9924 9.52346 22.841 9.94497C22.7758 9.72344 22.6607 9.51977 22.5047 9.34954C22.3486 9.1793 22.1557 9.04701 21.9407 8.9628C21.8793 8.94233 21.8384 8.93415 21.777 8.92187C21.691 8.90141 21.6297 8.91369 21.5724 8.84002H21.5314C21.3356 8.78917 21.1626 8.67384 21.0403 8.51263C20.9585 8.39395 20.9012 8.24662 20.7948 8.14431H20.7539C20.5943 8.11976 20.5042 8.18524 20.4265 8.30801ZM13.0192 10.1496H13.0602C13.1502 10.1414 13.2443 10.1373 13.3057 10.1905H13.3466C13.4148 10.1769 13.4694 10.1905 13.5103 10.2314H13.5512C13.8056 10.2591 14.0469 10.3584 14.2469 10.5179H14.2879C14.4679 10.5588 14.6235 10.6857 14.779 10.7635C14.8649 10.8044 14.9468 10.8248 15.0245 10.8862H15.0654C15.2291 10.9272 15.4297 11.0295 15.5565 11.1318H15.5974C15.7611 11.1727 15.9617 11.275 16.0885 11.3773H16.1295C16.2932 11.4182 16.4937 11.5206 16.6205 11.6229H16.6615C16.9715 11.7029 17.2633 11.8418 17.5209 12.0321H17.5618C17.705 12.0648 17.8605 12.1508 17.971 12.2367H18.012C18.2616 12.294 18.5153 12.4413 18.7486 12.5232C18.8223 12.5396 18.8714 12.5559 18.9532 12.5641C19.0269 12.5723 19.1046 12.5969 19.1578 12.605C19.226 12.5914 19.2806 12.605 19.3215 12.646H19.5671C19.6694 12.646 19.7308 12.6582 19.8126 12.6869H19.9354C19.9163 12.7442 19.8754 12.7715 19.8126 12.7687C19.6147 12.9052 19.3924 13.0024 19.1578 13.0552L18.7486 13.178C18.6668 13.2107 18.6095 13.2557 18.5031 13.2598H18.4621C18.3557 13.3458 18.1552 13.3826 18.012 13.3826H17.971C17.8442 13.4849 17.5332 13.5258 17.3572 13.5054H17.3163C17.2549 13.5586 17.1567 13.5545 17.0707 13.5463C17.0298 13.5545 16.9725 13.5872 16.907 13.5872H16.4569C16.3013 13.6036 16.1172 13.6036 15.9658 13.5872H15.5974C15.5033 13.5872 15.4215 13.5586 15.3519 13.5463H15.2291C15.1555 13.5463 15.1104 13.5176 15.0654 13.5054C14.9222 13.4726 14.779 13.4767 14.6562 13.4235H14.6153C14.4475 13.3949 14.2142 13.3662 14.0833 13.2598H14.0423C13.9332 13.2435 13.8377 13.2025 13.7559 13.1371H13.7149C13.6467 13.1316 13.5922 13.1043 13.5512 13.0552H13.5103C13.4176 13.0307 13.3357 12.9897 13.2648 12.9324H13.2238C12.9292 12.8629 12.6796 12.691 12.3972 12.5723C12.1107 12.4577 11.7342 12.3963 11.4641 12.2776H11.0139C10.441 12.2776 9.83124 12.2899 9.29514 12.2367C9.20101 12.2367 9.0987 12.249 9.00867 12.2367C8.95729 12.2287 8.90979 12.2045 8.87301 12.1678C8.83624 12.131 8.81209 12.0835 8.80405 12.0321C8.73038 11.8357 8.78768 11.6065 8.80405 11.4182C8.80405 11.2423 8.78768 11.0622 8.80405 10.8862C8.81223 10.7553 8.89408 10.5875 8.96774 10.477C9.02231 10.3951 9.09052 10.3269 9.17236 10.2724C9.2583 10.1905 9.39335 10.1782 9.49976 10.1496C10.1382 9.98999 10.9853 10.1087 11.6687 10.1087C11.8815 10.1087 12.1598 10.0882 12.3644 10.1087C12.5691 10.1291 12.8637 10.035 13.0192 10.1496Z" fill="#EDEDED" stroke="#EDEDED" stroke-width="0.0409241"/>
<path d="M11.0958 11.4185V11.4594C11.1695 11.5781 11.28 11.6763 11.4232 11.705C11.4355 11.6968 11.5746 11.6968 11.5869 11.705C11.8734 11.6477 11.9634 11.3448 11.8734 11.0911V11.0502C11.796 10.9687 11.6964 10.9118 11.5869 10.8865C11.5746 10.8947 11.4355 10.8947 11.4232 10.8865C11.1572 10.9397 11.0712 11.1648 11.0958 11.4185Z" fill="#EDEDED" stroke="#EDEDED" stroke-width="0.0409241"/>
<path d="M23.4958 14.6515H23.4549C22.7101 15.249 21.7688 15.6582 20.9994 16.2475C20.2219 16.8287 19.252 17.4466 18.2984 17.6389L18.1347 17.6799C18.0365 17.7208 17.971 17.7617 17.8483 17.7617H17.8073C17.7119 17.8163 17.6027 17.8436 17.48 17.8436H17.439C17.3858 17.8927 17.3163 17.8886 17.2344 17.8845H17.1526C17.0816 17.9145 16.9998 17.9281 16.907 17.9254H16.8252C16.7024 17.9745 16.5592 17.9663 16.4159 17.9663C16.1581 17.9909 15.8512 17.9909 15.5974 17.9663C15.4583 17.9663 15.2537 18.0032 15.1473 17.9254H15.1064C15.0163 17.9336 14.9222 17.9377 14.8608 17.8845H14.8199C14.738 17.8927 14.6685 17.8927 14.6153 17.8436H14.5743C14.2633 17.864 13.8991 17.7044 13.6331 17.598L13.4694 17.5571C12.9453 17.4189 12.4456 17.2008 11.9879 16.9105C11.5623 16.6404 11.0385 16.3867 10.6579 16.0716C10.2814 15.7564 9.68391 15.5477 9.41791 15.1426H9.37698C9.28286 15.0853 9.19283 15.0321 9.13144 14.938H9.09052C8.92682 14.8356 8.74266 14.7252 8.59943 14.6106H8.23111C8.16815 14.6317 8.1121 14.6695 8.06887 14.72C8.02564 14.7704 7.99686 14.8316 7.98557 14.897C7.99784 15.0321 7.98557 15.1712 7.98557 15.3063V15.6746C7.99375 15.7401 8.02649 15.8301 8.02649 15.9201V16.0429C8.03467 16.0838 8.0756 16.1329 8.06741 16.2066V16.2475C8.11652 16.2966 8.10015 16.3376 8.10834 16.4112C8.14108 16.6854 8.23111 16.9269 8.31296 17.1888C8.38253 17.3648 8.48484 17.5612 8.51758 17.7617V17.8026C8.56669 17.8436 8.59397 17.8981 8.59943 17.9663V18.0073C8.68853 18.1322 8.75757 18.2703 8.80405 18.4165C8.83269 18.4984 8.84497 18.5393 8.8859 18.6211C9.21329 19.1409 9.5284 19.6647 9.94174 20.1476C10.351 20.6264 10.793 20.9906 11.2677 21.3917C11.7465 21.7968 12.4258 21.9646 12.8965 22.3452H12.9374C13.0056 22.3534 13.0602 22.3807 13.1011 22.4271H13.142C13.2566 22.4434 13.3384 22.5089 13.4285 22.5498L13.7149 22.6317C13.9482 22.6849 14.247 22.7258 14.4516 22.8363H14.4925C14.5784 22.824 14.6398 22.869 14.6971 22.8772H14.8199C14.9345 22.8854 15.0572 22.9182 15.1473 22.9591H15.4747C15.5606 22.9591 15.6629 22.9918 15.7202 23H16.5796C16.6287 22.9918 16.7106 22.9591 16.7842 22.9591H17.1526C17.2876 22.9182 17.439 22.8609 17.6027 22.8772H17.6436C17.7541 22.7872 17.9465 22.779 18.0938 22.7545C18.2048 22.7354 18.3143 22.708 18.4212 22.6726C18.6872 22.5662 18.9901 22.4148 19.2806 22.3452H19.3215C19.6694 22.0669 20.1646 21.9483 20.5165 21.6577C20.8726 21.3712 21.2654 21.1339 21.6133 20.831C21.7934 20.6755 21.9816 20.4627 22.1453 20.299C22.751 19.6933 22.9924 18.883 23.4958 18.2528V18.2119C23.5203 18.1191 23.5613 18.0373 23.6186 17.9663V17.9254C23.6268 17.8572 23.654 17.8026 23.7004 17.7617V17.7208C23.7209 17.5857 23.7823 17.3688 23.8641 17.2706V17.2297C23.8641 17.1342 23.8914 17.0524 23.946 16.9842V16.9432C23.991 16.669 24.0442 16.3294 24.1506 16.0838V16.0429C24.1424 15.9611 24.1424 15.8915 24.1915 15.8383V15.5109C24.1915 15.294 24.171 15.0689 24.1915 14.8561C24.1593 14.7614 24.1029 14.6767 24.0278 14.6106C23.9869 14.5901 23.9828 14.5942 23.946 14.5696H23.7004C23.6431 14.6106 23.5749 14.6378 23.4958 14.6515ZM23.2502 16.2066C23.1643 16.755 22.3827 17.0374 21.9816 17.4343C21.5724 17.8231 21.0117 18.2119 20.5493 18.5393C20.0786 18.8667 19.5221 19.3455 18.9532 19.4805H18.9123C18.7916 19.5682 18.6509 19.6244 18.5031 19.6442H18.4621C18.3152 19.74 18.1461 19.7964 17.971 19.8079H17.9301C17.8346 19.8625 17.7255 19.8898 17.6027 19.8898H17.5618C17.5168 19.9348 17.4677 19.9307 17.3981 19.9307H17.3163C17.2671 19.9471 17.2262 19.9716 17.1526 19.9716H17.0707C16.997 20.0003 16.9234 20.0248 16.8252 20.0125H16.7842C16.7351 20.0617 16.6901 20.0535 16.6205 20.0535H16.4159C16.1827 20.078 15.9126 20.0862 15.6793 20.0535H15.5156C15.4378 20.0535 15.4051 20.0289 15.3519 20.0125H15.1064C15.0286 20.0125 14.9959 20.0248 14.9427 19.9716H14.9017C14.8335 19.9853 14.779 19.9716 14.738 19.9307H14.6971C14.3656 19.9512 14.0096 19.7834 13.7068 19.6933C13.4039 19.6033 13.0602 19.5133 12.8146 19.3168H12.7737C12.2499 19.1122 11.6646 18.6784 11.2308 18.3224C10.7971 17.9663 10.1464 17.6471 9.82715 17.1888C9.81487 17.1806 9.78623 17.1888 9.78623 17.1888C9.55296 17.0087 9.10689 16.7795 9.00867 16.4931C8.97184 16.3867 8.96774 16.2721 8.92682 16.1657C8.89408 16.0756 8.82451 15.9611 8.84497 15.8383C9.98375 16.695 11.1879 17.4613 12.4463 18.13H12.4872C12.58 18.1546 12.6618 18.1955 12.7328 18.2528H12.7737C12.8883 18.2692 12.9701 18.3347 13.0602 18.3756C13.1966 18.4247 13.333 18.4656 13.4694 18.4984L13.7149 18.5802C13.7941 18.5966 13.8759 18.6102 13.9605 18.6211C14.0423 18.632 14.1105 18.6457 14.1651 18.6621C14.2306 18.6539 14.247 18.6621 14.2879 18.703H14.3288C14.4106 18.6948 14.4802 18.6948 14.5334 18.7439H14.5743C14.6644 18.7316 14.7135 18.7603 14.779 18.7848H15.1064C15.1718 18.7848 15.2291 18.8217 15.2701 18.8257H16.907C16.9807 18.7725 17.0953 18.7766 17.1935 18.7848H17.2344C17.2835 18.7357 17.3654 18.7357 17.439 18.7439H17.48C17.5291 18.6948 17.6109 18.6948 17.6846 18.703H17.7255C17.7705 18.658 17.8196 18.6621 17.8892 18.6621H17.971C18.1143 18.5925 18.2534 18.5679 18.4212 18.5393L18.5849 18.4984C18.724 18.4411 18.8755 18.3756 19.0351 18.3347C19.0965 18.3183 19.1374 18.3142 19.1988 18.2937C19.2561 18.2651 19.2806 18.216 19.3625 18.2119H19.4034C19.4743 18.1546 19.5562 18.1137 19.6489 18.0891H19.6899C19.7922 18.0073 19.9354 17.9336 20.0582 17.8845L20.1809 17.8436C20.2382 17.8067 20.2628 17.7413 20.3446 17.7208H20.3856C20.4238 17.6608 20.4783 17.6199 20.5493 17.598H20.5902C20.8889 17.2829 21.3677 17.0578 21.7238 16.8082C22.0839 16.5586 22.4686 16.1943 22.8819 16.0429C22.8983 16.0347 22.9229 16.0429 22.9229 16.0429C23.0265 15.9365 23.1493 15.8547 23.2912 15.7974C23.3444 15.8997 23.2707 16.0716 23.2502 16.2066ZM22.4318 18.4574C22.4236 18.4738 22.4318 18.4984 22.4318 18.4984C22.2926 18.8912 21.912 19.2759 21.6542 19.6033C21.5067 19.7824 21.3423 19.9469 21.1631 20.0944C20.8212 20.3995 20.4558 20.6772 20.0704 20.9252C19.6817 21.1625 19.252 21.5308 18.7895 21.6086H18.7486C18.6279 21.6962 18.4872 21.7525 18.3394 21.7723H18.2984C18.1675 21.8787 17.9342 21.9073 17.7664 21.936H17.7255C17.6846 21.9742 17.63 21.9878 17.5618 21.9769H17.5209C17.48 22.0151 17.4254 22.0287 17.3572 22.0178H17.3163C17.1157 22.112 16.8866 22.0587 16.6615 22.0997C16.6205 22.1079 16.5592 22.1406 16.4978 22.1406C16.244 22.157 15.9739 22.1529 15.7202 22.1406C15.6466 22.1406 15.5647 22.1079 15.5156 22.0997H15.3519C15.2864 22.0997 15.2291 22.0628 15.1882 22.0587H15.0245C14.8649 22.0465 14.6644 22.0055 14.5334 21.936H14.4925C14.3574 21.9155 14.1856 21.8951 14.0833 21.8132H14.0423C13.895 21.8091 13.6986 21.7395 13.5922 21.6495H13.5512C13.3916 21.625 13.2238 21.5431 13.1011 21.4449H13.0602C12.4013 21.2894 11.7424 20.6714 11.2186 20.2581C10.5631 19.656 10.0101 18.951 9.5816 18.171C10.306 18.6416 11.0139 19.2145 11.7097 19.7261H11.7506C11.9143 19.7916 12.2744 19.9471 12.3644 20.0944H12.4054C12.5936 20.1353 12.831 20.2622 12.9783 20.3809H13.0192C13.0874 20.389 13.142 20.4163 13.1829 20.4627H13.2238C13.3589 20.4832 13.5758 20.5446 13.674 20.6264H13.7149C13.8104 20.6264 13.8923 20.6537 13.9605 20.7083H14.0014C14.0696 20.6946 14.1242 20.7083 14.1651 20.7492H14.206C14.2742 20.7355 14.3288 20.7492 14.3697 20.7901H14.4106C14.5662 20.7819 14.7339 20.831 14.8608 20.872H15.2291C15.2946 20.872 15.3519 20.9047 15.3928 20.9129H16.7024C16.7515 20.9047 16.8334 20.872 16.907 20.872H17.2344C17.5029 20.7974 17.7764 20.7427 18.0529 20.7083L18.2575 20.6673C18.3394 20.6387 18.4089 20.6059 18.5031 20.5855L18.6668 20.5446C18.7281 20.52 18.7895 20.475 18.8714 20.4627H18.9123C18.9941 20.3972 19.0896 20.3563 19.1988 20.3399H19.2397C19.3106 20.2826 19.3925 20.2417 19.4852 20.2172H19.5262C20.005 19.8325 20.6557 19.6197 21.1222 19.1941C21.5969 18.7725 22.1453 18.437 22.6364 18.0482C22.6235 18.2059 22.5502 18.3525 22.4318 18.4574Z" fill="#EDEDED" stroke="#EDEDED" stroke-width="0.0409241"/>
</g>
<path d="M44.204 21V11.06H47.396C48.9547 11.06 50.154 11.494 50.994 12.362C51.834 13.2207 52.254 14.448 52.254 16.044C52.254 17.6307 51.8387 18.8533 51.008 19.712C50.1867 20.5707 49.0107 21 47.48 21H44.204ZM45.716 19.614H47.396C48.4973 19.614 49.3187 19.32 49.86 18.732C50.4107 18.1347 50.686 17.2387 50.686 16.044C50.686 14.8307 50.4107 13.93 49.86 13.342C49.3187 12.7447 48.4973 12.446 47.396 12.446H45.716V19.614ZM57.2212 21.168C56.4932 21.168 55.8632 21.0093 55.3312 20.692C54.8085 20.3747 54.4025 19.922 54.1132 19.334C53.8332 18.746 53.6932 18.06 53.6932 17.276C53.6932 16.492 53.8332 15.8107 54.1132 15.232C54.4025 14.644 54.8085 14.1913 55.3312 13.874C55.8538 13.5473 56.4698 13.384 57.1792 13.384C57.8512 13.384 58.4438 13.5427 58.9572 13.86C59.4705 14.168 59.8672 14.616 60.1472 15.204C60.4365 15.792 60.5812 16.5013 60.5812 17.332V17.71H55.2332C55.2705 18.438 55.4618 18.984 55.8072 19.348C56.1618 19.712 56.6378 19.894 57.2352 19.894C57.6738 19.894 58.0378 19.7913 58.3272 19.586C58.6165 19.3807 58.8172 19.1053 58.9292 18.76L60.4692 18.858C60.2732 19.5487 59.8858 20.1087 59.3072 20.538C58.7378 20.958 58.0425 21.168 57.2212 21.168ZM55.2332 16.59H59.0132C58.9665 15.9273 58.7752 15.4373 58.4392 15.12C58.1125 14.8027 57.6925 14.644 57.1792 14.644C56.6472 14.644 56.2085 14.812 55.8632 15.148C55.5272 15.4747 55.3172 15.9553 55.2332 16.59ZM62.1548 23.1V13.552H63.5548L63.5968 15.148L63.4288 15.064C63.6155 14.5133 63.9235 14.098 64.3528 13.818C64.7822 13.5287 65.2768 13.384 65.8368 13.384C66.5648 13.384 67.1622 13.566 67.6288 13.93C68.1048 14.2847 68.4548 14.756 68.6788 15.344C68.9122 15.932 69.0288 16.576 69.0288 17.276C69.0288 17.976 68.9122 18.62 68.6788 19.208C68.4548 19.796 68.1048 20.272 67.6288 20.636C67.1622 20.9907 66.5648 21.168 65.8368 21.168C65.4635 21.168 65.1135 21.1027 64.7868 20.972C64.4602 20.8413 64.1802 20.6593 63.9468 20.426C63.7228 20.1833 63.5642 19.8987 63.4708 19.572L63.6388 19.404V23.1H62.1548ZM65.5708 19.88C66.1682 19.88 66.6348 19.6513 66.9708 19.194C67.3162 18.7367 67.4888 18.0973 67.4888 17.276C67.4888 16.4547 67.3162 15.8153 66.9708 15.358C66.6348 14.9007 66.1682 14.672 65.5708 14.672C65.1788 14.672 64.8382 14.77 64.5488 14.966C64.2595 15.1527 64.0355 15.442 63.8768 15.834C63.7182 16.226 63.6388 16.7067 63.6388 17.276C63.6388 17.8453 63.7135 18.326 63.8628 18.718C64.0215 19.11 64.2455 19.404 64.5348 19.6C64.8335 19.7867 65.1788 19.88 65.5708 19.88ZM72.2981 21C71.8127 21 71.4207 20.874 71.1221 20.622C70.8234 20.37 70.6741 19.9687 70.6741 19.418V11.06H72.1581V19.278C72.1581 19.446 72.2001 19.572 72.2841 19.656C72.3774 19.74 72.5081 19.782 72.6761 19.782H73.2641V21H72.2981ZM77.6655 21.168C76.9562 21.168 76.3355 21.0093 75.8035 20.692C75.2715 20.3747 74.8609 19.922 74.5715 19.334C74.2822 18.746 74.1375 18.06 74.1375 17.276C74.1375 16.4827 74.2822 15.7967 74.5715 15.218C74.8609 14.6393 75.2715 14.1913 75.8035 13.874C76.3355 13.5473 76.9562 13.384 77.6655 13.384C78.3749 13.384 78.9955 13.5473 79.5275 13.874C80.0595 14.1913 80.4702 14.6393 80.7595 15.218C81.0489 15.7967 81.1935 16.4827 81.1935 17.276C81.1935 18.06 81.0489 18.746 80.7595 19.334C80.4702 19.922 80.0595 20.3747 79.5275 20.692C78.9955 21.0093 78.3749 21.168 77.6655 21.168ZM77.6655 19.88C78.3002 19.88 78.7902 19.6513 79.1355 19.194C79.4809 18.7273 79.6535 18.088 79.6535 17.276C79.6535 16.464 79.4809 15.8293 79.1355 15.372C78.7902 14.9053 78.3002 14.672 77.6655 14.672C77.0402 14.672 76.5502 14.9053 76.1955 15.372C75.8502 15.8293 75.6775 16.464 75.6775 17.276C75.6775 18.088 75.8502 18.7273 76.1955 19.194C76.5502 19.6513 77.0402 19.88 77.6655 19.88ZM82.9509 23.1V21.882H83.8609C84.1129 21.882 84.2995 21.8447 84.4209 21.77C84.5422 21.6953 84.6355 21.5693 84.7009 21.392L84.9389 20.776H84.4769L81.7889 13.552H83.3569L85.4009 19.404L87.3469 13.552H88.9289L85.9609 21.868C85.8115 22.2973 85.5875 22.61 85.2889 22.806C84.9995 23.002 84.5935 23.1 84.0709 23.1H82.9509ZM95.3394 21L93.0714 13.552H94.6254L96.2214 19.376L97.8594 13.552H99.2594L100.897 19.376L102.507 13.552H104.061L101.793 21H100.127L98.5594 15.68L96.9914 21H95.3394ZM105.354 21V13.552H106.838V21H105.354ZM105.326 12.474V10.99H106.866V12.474H105.326ZM111.356 21C110.647 21 110.124 20.8367 109.788 20.51C109.452 20.1833 109.284 19.6747 109.284 18.984V11.802H110.768V18.872C110.768 19.2173 110.843 19.4553 110.992 19.586C111.142 19.7167 111.37 19.782 111.678 19.782H112.742V21H111.356ZM108.15 14.77V13.552H112.742V14.77H108.15ZM114.23 21V11.06H115.714V15.232L115.532 15.204C115.616 14.784 115.77 14.4433 115.994 14.182C116.218 13.9113 116.494 13.7107 116.82 13.58C117.147 13.4493 117.506 13.384 117.898 13.384C118.44 13.384 118.897 13.5053 119.27 13.748C119.644 13.9813 119.924 14.3127 120.11 14.742C120.306 15.1713 120.404 15.6613 120.404 16.212V21H118.92V16.604C118.92 15.932 118.804 15.4373 118.57 15.12C118.346 14.7933 117.992 14.63 117.506 14.63C116.965 14.63 116.531 14.8027 116.204 15.148C115.878 15.484 115.714 15.9787 115.714 16.632V21H114.23ZM126.2 21V11.06H129.392C130.951 11.06 132.15 11.494 132.99 12.362C133.83 13.2207 134.25 14.448 134.25 16.044C134.25 17.6307 133.835 18.8533 133.004 19.712C132.183 20.5707 131.007 21 129.476 21H126.2ZM127.712 19.614H129.392C130.494 19.614 131.315 19.32 131.856 18.732C132.407 18.1347 132.682 17.2387 132.682 16.044C132.682 14.8307 132.407 13.93 131.856 13.342C131.315 12.7447 130.494 12.446 129.392 12.446H127.712V19.614ZM139.217 21.168C138.508 21.168 137.887 21.0093 137.355 20.692C136.823 20.3747 136.413 19.922 136.123 19.334C135.834 18.746 135.689 18.06 135.689 17.276C135.689 16.4827 135.834 15.7967 136.123 15.218C136.413 14.6393 136.823 14.1913 137.355 13.874C137.887 13.5473 138.508 13.384 139.217 13.384C139.927 13.384 140.547 13.5473 141.079 13.874C141.611 14.1913 142.022 14.6393 142.311 15.218C142.601 15.7967 142.745 16.4827 142.745 17.276C142.745 18.06 142.601 18.746 142.311 19.334C142.022 19.922 141.611 20.3747 141.079 20.692C140.547 21.0093 139.927 21.168 139.217 21.168ZM139.217 19.88C139.852 19.88 140.342 19.6513 140.687 19.194C141.033 18.7273 141.205 18.088 141.205 17.276C141.205 16.464 141.033 15.8293 140.687 15.372C140.342 14.9053 139.852 14.672 139.217 14.672C138.592 14.672 138.102 14.9053 137.747 15.372C137.402 15.8293 137.229 16.464 137.229 17.276C137.229 18.088 137.402 18.7273 137.747 19.194C138.102 19.6513 138.592 19.88 139.217 19.88ZM144.315 21V11.06H145.799V17.234L149.145 13.552H151.021L148.109 16.688L151.133 21H149.425L147.115 17.612L145.799 19.012V21H144.315ZM152.329 23.1V13.552H153.729L153.771 15.148L153.603 15.064C153.789 14.5133 154.097 14.098 154.527 13.818C154.956 13.5287 155.451 13.384 156.011 13.384C156.739 13.384 157.336 13.566 157.803 13.93C158.279 14.2847 158.629 14.756 158.853 15.344C159.086 15.932 159.203 16.576 159.203 17.276C159.203 17.976 159.086 18.62 158.853 19.208C158.629 19.796 158.279 20.272 157.803 20.636C157.336 20.9907 156.739 21.168 156.011 21.168C155.637 21.168 155.287 21.1027 154.961 20.972C154.634 20.8413 154.354 20.6593 154.121 20.426C153.897 20.1833 153.738 19.8987 153.645 19.572L153.813 19.404V23.1H152.329ZM155.745 19.88C156.342 19.88 156.809 19.6513 157.145 19.194C157.49 18.7367 157.663 18.0973 157.663 17.276C157.663 16.4547 157.49 15.8153 157.145 15.358C156.809 14.9007 156.342 14.672 155.745 14.672C155.353 14.672 155.012 14.77 154.723 14.966C154.433 15.1527 154.209 15.442 154.051 15.834C153.892 16.226 153.813 16.7067 153.813 17.276C153.813 17.8453 153.887 18.326 154.037 18.718C154.195 19.11 154.419 19.404 154.709 19.6C155.007 19.7867 155.353 19.88 155.745 19.88ZM162.472 21C161.986 21 161.594 20.874 161.296 20.622C160.997 20.37 160.848 19.9687 160.848 19.418V11.06H162.332V19.278C162.332 19.446 162.374 19.572 162.458 19.656C162.551 19.74 162.682 19.782 162.85 19.782H163.438V21H162.472ZM167.839 21.168C167.13 21.168 166.509 21.0093 165.977 20.692C165.445 20.3747 165.035 19.922 164.745 19.334C164.456 18.746 164.311 18.06 164.311 17.276C164.311 16.4827 164.456 15.7967 164.745 15.218C165.035 14.6393 165.445 14.1913 165.977 13.874C166.509 13.5473 167.13 13.384 167.839 13.384C168.549 13.384 169.169 13.5473 169.701 13.874C170.233 14.1913 170.644 14.6393 170.933 15.218C171.223 15.7967 171.367 16.4827 171.367 17.276C171.367 18.06 171.223 18.746 170.933 19.334C170.644 19.922 170.233 20.3747 169.701 20.692C169.169 21.0093 168.549 21.168 167.839 21.168ZM167.839 19.88C168.474 19.88 168.964 19.6513 169.309 19.194C169.655 18.7273 169.827 18.088 169.827 17.276C169.827 16.464 169.655 15.8293 169.309 15.372C168.964 14.9053 168.474 14.672 167.839 14.672C167.214 14.672 166.724 14.9053 166.369 15.372C166.024 15.8293 165.851 16.464 165.851 17.276C165.851 18.088 166.024 18.7273 166.369 19.194C166.724 19.6513 167.214 19.88 167.839 19.88ZM173.125 23.1V21.882H174.035C174.287 21.882 174.473 21.8447 174.595 21.77C174.716 21.6953 174.809 21.5693 174.875 21.392L175.113 20.776H174.651L171.963 13.552H173.531L175.575 19.404L177.521 13.552H179.103L176.135 21.868C175.985 22.2973 175.761 22.61 175.463 22.806C175.173 23.002 174.767 23.1 174.245 23.1H173.125Z" fill="#EDEDED"/>
<defs>
<clipPath id="clip0_78_84">
<rect width="17.5216" height="14.8604" fill="white" transform="translate(7.98557 8.13965)"/>
</clipPath>
</defs>
</svg>
